<svg width="451" height="411" viewBox="0 0 451 411" fill="none" xmlns="http://www.w3.org/2000/svg">
<g clip-path="url(#clip0_234_1299)">
<path d="M275.056 273.862H175.801C175.453 273.862 175.121 273.723 174.875 273.478C174.63 273.232 174.492 272.9 174.491 272.552V163.345C174.492 162.998 174.63 162.665 174.875 162.42C175.121 162.174 175.453 162.036 175.801 162.036H275.056C275.403 162.036 275.736 162.174 275.982 162.42C276.227 162.665 276.365 162.998 276.366 163.345V272.552C276.365 272.9 276.227 273.232 275.982 273.478C275.736 273.723 275.403 273.862 275.056 273.862Z" fill="white"/>
<path d="M275.056 273.862H175.801C175.453 273.862 175.121 273.723 174.875 273.478C174.63 273.232 174.492 272.9 174.491 272.552V163.345C174.492 162.998 174.63 162.665 174.875 162.42C175.121 162.174 175.453 162.036 175.801 162.036H275.056C275.403 162.036 275.736 162.174 275.982 162.42C276.227 162.665 276.365 162.998 276.366 163.345V272.552C276.365 272.9 276.227 273.232 275.982 273.478C275.736 273.723 275.403 273.862 275.056 273.862ZM175.801 162.56C175.592 162.56 175.393 162.643 175.245 162.79C175.098 162.937 175.015 163.137 175.015 163.345V272.552C175.015 272.761 175.098 272.961 175.245 273.108C175.393 273.255 175.592 273.338 175.801 273.338H275.056C275.264 273.338 275.464 273.255 275.611 273.108C275.759 272.961 275.842 272.761 275.842 272.552V163.345C275.842 163.137 275.759 162.937 275.611 162.79C275.464 162.643 275.264 162.56 275.056 162.56H175.801Z" fill="#3F3D56"/>
<path d="M218.618 203.676H194.001C193.654 203.676 193.321 203.537 193.075 203.292C192.83 203.046 192.692 202.714 192.691 202.366V177.749C192.692 177.402 192.83 177.069 193.075 176.824C193.321 176.578 193.654 176.44 194.001 176.44H218.618C218.965 176.44 219.298 176.578 219.544 176.824C219.789 177.069 219.927 177.402 219.928 177.749V202.366C219.927 202.714 219.789 203.046 219.544 203.292C219.298 203.537 218.965 203.676 218.618 203.676ZM194.001 176.963C193.793 176.964 193.593 177.046 193.446 177.194C193.298 177.341 193.215 177.541 193.215 177.749V202.366C193.215 202.575 193.298 202.774 193.446 202.922C193.593 203.069 193.793 203.152 194.001 203.152H218.618C218.827 203.152 219.026 203.069 219.174 202.922C219.321 202.774 219.404 202.575 219.404 202.366V177.749C219.404 177.541 219.321 177.341 219.174 177.194C219.026 177.046 218.827 176.964 218.618 176.963H194.001Z" fill="#F2F2F2"/>
<path d="M211.548 206.688H186.93C186.618 206.687 186.318 206.563 186.098 206.342C185.877 206.121 185.752 205.822 185.752 205.509V180.892C185.752 180.579 185.877 180.28 186.098 180.059C186.318 179.838 186.618 179.714 186.93 179.713H211.548C211.86 179.714 212.16 179.838 212.381 180.059C212.602 180.28 212.726 180.579 212.726 180.892V205.509C212.726 205.822 212.602 206.121 212.381 206.342C212.16 206.563 211.86 206.687 211.548 206.688Z" fill="white"/>
<path d="M263.925 218.735H186.93C186.775 218.735 186.621 218.705 186.478 218.646C186.335 218.586 186.205 218.5 186.095 218.39C185.985 218.281 185.898 218.151 185.839 218.008C185.78 217.864 185.749 217.711 185.749 217.556C185.749 217.401 185.78 217.248 185.839 217.105C185.898 216.961 185.985 216.831 186.095 216.722C186.205 216.612 186.335 216.526 186.478 216.467C186.621 216.407 186.775 216.377 186.93 216.378H263.925C264.238 216.378 264.537 216.502 264.758 216.723C264.979 216.944 265.103 217.244 265.103 217.556C265.103 217.869 264.979 218.168 264.758 218.389C264.537 218.61 264.238 218.735 263.925 218.735Z" fill="#7D0A7F"/>
<path d="M245.331 226.853H186.93C186.775 226.853 186.621 226.823 186.478 226.764C186.335 226.705 186.205 226.618 186.095 226.509C185.985 226.399 185.898 226.269 185.839 226.126C185.78 225.983 185.749 225.83 185.749 225.675C185.749 225.52 185.78 225.366 185.839 225.223C185.898 225.08 185.985 224.95 186.095 224.84C186.205 224.731 186.335 224.644 186.478 224.585C186.621 224.526 186.775 224.496 186.93 224.496H245.331C245.644 224.496 245.943 224.62 246.164 224.841C246.385 225.062 246.509 225.362 246.509 225.675C246.509 225.987 246.385 226.287 246.164 226.508C245.943 226.729 245.644 226.853 245.331 226.853Z" fill="#7D0A7F"/>
<path d="M263.663 188.879H229.618C229.305 188.879 229.006 188.755 228.785 188.534C228.564 188.313 228.439 188.013 228.439 187.701C228.439 187.388 228.564 187.089 228.785 186.868C229.006 186.647 229.305 186.522 229.618 186.522H263.663C263.818 186.522 263.972 186.552 264.115 186.611C264.258 186.67 264.389 186.757 264.498 186.867C264.608 186.976 264.695 187.106 264.754 187.249C264.814 187.392 264.844 187.546 264.844 187.701C264.844 187.856 264.814 188.009 264.754 188.152C264.695 188.296 264.608 188.426 264.498 188.535C264.389 188.644 264.258 188.731 264.115 188.79C263.972 188.849 263.818 188.88 263.663 188.879Z" fill="white"/>
<path d="M255.167 196.998H229.618C229.305 196.998 229.006 196.874 228.785 196.653C228.564 196.432 228.439 196.132 228.439 195.819C228.439 195.507 228.564 195.207 228.785 194.986C229.006 194.765 229.305 194.641 229.618 194.641H255.167C255.479 194.641 255.779 194.765 256 194.986C256.221 195.207 256.345 195.507 256.345 195.819C256.345 196.132 256.221 196.432 256 196.653C255.779 196.874 255.479 196.998 255.167 196.998Z" fill="white"/>
<path d="M263.925 234.971H186.93C186.618 234.971 186.318 234.847 186.097 234.626C185.876 234.405 185.752 234.106 185.752 233.793C185.752 233.48 185.876 233.181 186.097 232.96C186.318 232.739 186.618 232.615 186.93 232.615H263.925C264.08 232.614 264.234 232.644 264.377 232.704C264.521 232.763 264.651 232.849 264.76 232.959C264.87 233.068 264.957 233.198 265.016 233.341C265.076 233.485 265.106 233.638 265.106 233.793C265.106 233.948 265.076 234.101 265.016 234.245C264.957 234.388 264.87 234.518 264.76 234.627C264.651 234.737 264.521 234.823 264.377 234.882C264.234 234.942 264.08 234.972 263.925 234.971Z" fill="#7D0A7F"/>
<path d="M245.331 243.09H186.93C186.618 243.09 186.318 242.966 186.097 242.745C185.876 242.524 185.752 242.224 185.752 241.912C185.752 241.599 185.876 241.299 186.097 241.078C186.318 240.857 186.618 240.733 186.93 240.733H245.331C245.486 240.733 245.64 240.763 245.783 240.822C245.926 240.881 246.057 240.968 246.166 241.077C246.276 241.187 246.363 241.317 246.422 241.46C246.482 241.603 246.512 241.757 246.512 241.912C246.512 242.066 246.482 242.22 246.422 242.363C246.363 242.506 246.276 242.636 246.166 242.746C246.057 242.855 245.926 242.942 245.783 243.001C245.64 243.06 245.486 243.09 245.331 243.09Z" fill="#7D0A7F"/>
<path d="M263.925 251.209H186.93C186.775 251.209 186.621 251.179 186.478 251.12C186.335 251.06 186.205 250.974 186.095 250.864C185.985 250.755 185.898 250.625 185.839 250.482C185.78 250.338 185.749 250.185 185.749 250.03C185.749 249.875 185.78 249.722 185.839 249.578C185.898 249.435 185.985 249.305 186.095 249.196C186.205 249.086 186.335 249 186.478 248.941C186.621 248.881 186.775 248.851 186.93 248.852H263.925C264.238 248.852 264.537 248.976 264.758 249.197C264.979 249.418 265.104 249.718 265.104 250.03C265.104 250.343 264.979 250.642 264.758 250.863C264.537 251.084 264.238 251.209 263.925 251.209Z" fill="#7D0A7F"/>
<path d="M263.925 259.327H186.93C186.618 259.327 186.318 259.203 186.097 258.982C185.876 258.761 185.752 258.461 185.752 258.149C185.752 257.836 185.876 257.536 186.097 257.315C186.318 257.094 186.618 256.97 186.93 256.97H263.925C264.238 256.97 264.538 257.094 264.759 257.315C264.98 257.536 265.104 257.836 265.104 258.149C265.104 258.461 264.98 258.761 264.759 258.982C264.538 259.203 264.238 259.327 263.925 259.327Z" fill="#7D0A7F"/>
<path d="M153.795 322.239C153.798 337.624 149.168 352.653 140.507 365.368C131.847 378.084 119.558 387.897 105.241 393.528C104.118 393.979 102.974 394.398 101.825 394.786C100.541 395.226 99.2442 395.629 97.9332 395.997C97.0223 396.251 96.1028 396.489 95.1747 396.711C81.2036 400.059 66.5748 399.435 52.9394 394.91C51.8681 394.553 50.8071 394.17 49.7566 393.772C48.3437 393.228 46.9464 392.643 45.575 392.017C45.4715 391.976 45.3731 391.929 45.2748 391.883C44.7366 391.634 44.2139 391.386 43.6808 391.122H43.6756C42.9459 390.77 42.2231 390.404 41.5072 390.025C39.8615 389.155 38.252 388.229 36.6787 387.246C35.861 386.738 35.0554 386.212 34.2618 385.667C21.7721 377.235 12.0487 365.304 6.3099 351.369C0.571077 337.435 -0.92791 322.117 2.00075 307.334C4.92941 292.552 12.1555 278.962 22.7735 268.268C33.3916 257.574 46.9294 250.252 61.6908 247.218C63.0415 246.939 64.4061 246.697 65.7844 246.494C66.6487 246.359 67.5233 246.245 68.3979 246.147C69.0241 246.075 69.6503 246.007 70.2869 245.956H70.2921C71.9948 245.8 73.7129 245.704 75.4466 245.666C75.6847 245.661 75.9228 245.655 76.166 245.65C76.3006 245.65 76.4351 245.645 76.5697 245.65H76.5749C76.7819 245.645 76.9889 245.645 77.2011 245.645C78.0705 245.645 78.9399 245.661 79.8042 245.692C81.7087 245.754 83.5925 245.885 85.4556 246.085C86.5321 246.199 87.593 246.339 88.6539 246.494C88.773 246.514 88.8972 246.53 89.0162 246.551C89.3681 246.608 89.7252 246.665 90.0771 246.727C90.8224 246.846 91.5624 246.985 92.3025 247.135C92.996 247.275 93.6843 247.42 94.3726 247.575C96.9166 248.156 99.4283 248.869 101.897 249.713C118.632 255.434 132.879 266.754 142.234 281.763C142.497 282.182 142.756 282.607 143.01 283.036C143.206 283.357 143.393 283.678 143.579 284.004C143.646 284.113 143.708 284.221 143.765 284.33C143.807 284.392 143.838 284.454 143.874 284.516C144.216 285.112 144.547 285.717 144.868 286.323C150.748 297.38 153.814 309.715 153.795 322.239Z" fill="white"/>
<path d="M77.209 399.353C68.9057 399.353 60.6563 398.019 52.7762 395.402C51.7602 395.063 50.7126 394.688 49.5729 394.256C48.135 393.703 46.7183 393.108 45.3598 392.488C45.2694 392.452 45.162 392.402 45.0546 392.351C44.5394 392.113 44.0358 391.874 43.5235 391.621L43.4508 391.588C42.7241 391.238 41.9886 390.866 41.2648 390.482C39.6164 389.611 37.9808 388.67 36.4042 387.685C35.5837 387.176 34.7638 386.64 33.9685 386.094C21.3952 377.604 11.6069 365.592 5.83006 351.563C0.0531943 337.535 -1.45534 322.114 1.49346 307.232C4.44226 292.35 11.7172 278.669 22.4069 267.903C33.0967 257.137 46.7257 249.766 61.5864 246.711C62.9414 246.431 64.3285 246.186 65.7086 245.982C66.5261 245.855 67.4128 245.737 68.3399 245.633C68.9703 245.56 69.6023 245.492 70.2448 245.44C71.9502 245.285 73.6964 245.187 75.4351 245.148L76.2939 245.132C76.3922 245.13 76.4906 245.129 76.589 245.133C76.7732 245.128 76.9843 245.128 77.2009 245.128C78.0765 245.128 78.9586 245.143 79.8227 245.174C81.7315 245.237 83.6458 245.37 85.5107 245.57C86.4982 245.675 87.551 245.809 88.7287 245.982L89.2262 246.061C89.5391 246.111 89.8551 246.162 90.1669 246.217C90.8381 246.324 91.5519 246.455 92.4052 246.628C93.1019 246.769 93.7941 246.915 94.4864 247.071C97.0482 247.656 99.5777 248.374 102.065 249.223C118.903 254.999 133.242 266.392 142.673 281.49C142.938 281.911 143.199 282.339 143.455 282.773C143.65 283.091 143.839 283.417 144.028 283.747C144.089 283.845 144.153 283.956 144.212 284.068C144.241 284.113 144.266 284.159 144.292 284.204L144.321 284.256C144.646 284.823 144.974 285.418 145.325 286.08C150.416 295.676 153.423 306.239 154.149 317.078C154.875 327.917 153.303 338.786 149.537 348.975C145.771 359.164 139.895 368.443 132.294 376.204C124.693 383.965 115.538 390.032 105.43 394.01C104.334 394.449 103.176 394.876 101.99 395.276C100.707 395.716 99.3882 396.127 98.0727 396.495C97.1617 396.749 96.2275 396.991 95.2953 397.215C89.3713 398.635 83.3008 399.352 77.209 399.353ZM43.7939 390.604H43.7966L43.9104 390.658C44.4391 390.92 44.9576 391.166 45.4915 391.413C45.5856 391.457 45.674 391.499 45.7672 391.537C47.129 392.158 48.5261 392.744 49.9421 393.288C51.0665 393.715 52.1011 394.085 53.103 394.419C66.646 398.917 81.1773 399.537 95.054 396.208C95.974 395.987 96.896 395.748 97.7941 395.498C99.09 395.135 100.39 394.731 101.657 394.296C102.826 393.901 103.966 393.482 105.048 393.048C119.303 387.505 131.543 377.771 140.154 365.13C148.764 352.488 153.34 337.534 153.277 322.239V322.238C153.285 309.801 150.24 297.552 144.411 286.566C144.065 285.914 143.743 285.328 143.425 284.774L143.387 284.706C143.37 284.677 143.355 284.647 143.335 284.618L143.307 284.57C143.255 284.473 143.199 284.375 143.139 284.277C142.946 283.94 142.762 283.623 142.568 283.307C142.313 282.874 142.057 282.454 141.795 282.039C132.491 267.143 118.344 255.901 101.73 250.203C99.2777 249.365 96.7835 248.657 94.2573 248.08C93.5741 247.926 92.8896 247.782 92.2001 247.643C91.3607 247.473 90.6602 247.344 89.9953 247.238C89.6801 247.182 89.3693 247.132 89.0614 247.082L88.565 247.004C87.415 246.836 86.3755 246.703 85.401 246.6C83.5607 246.402 81.6722 246.27 79.7872 246.209C78.9337 246.178 78.0641 246.163 77.2009 246.163C76.9903 246.164 76.7901 246.163 76.5873 246.168C76.4691 246.165 76.3879 246.166 76.3069 246.167L75.4575 246.183C73.7428 246.221 72.0206 246.318 70.3388 246.471L70.2867 246.473C69.6981 246.523 69.0777 246.589 68.4573 246.661C67.5428 246.764 66.6709 246.88 65.8638 247.005C64.4992 247.207 63.1318 247.449 61.7954 247.725C47.1337 250.738 33.6873 258.011 23.1409 268.633C12.5945 279.254 5.4172 292.752 2.50827 307.435C-0.400658 322.117 1.08816 337.332 6.78819 351.172C12.4882 365.012 22.1459 376.863 34.5513 385.238C35.3367 385.778 36.143 386.305 36.9513 386.806C38.5083 387.779 40.1219 388.708 41.7488 389.567C42.4263 389.926 43.1136 390.275 43.7939 390.604Z" fill="#CBCBCB"/>
<path d="M142.743 305.607C141.907 306.699 140.842 307.593 139.623 308.229C138.403 308.864 137.059 309.224 135.686 309.283C134.312 309.343 132.942 309.1 131.673 308.573C130.403 308.046 129.264 307.247 128.337 306.232L108.129 313.545L100.689 302.349L129.372 292.422C131.18 290.977 133.456 290.245 135.767 290.366C138.079 290.486 140.266 291.45 141.914 293.076C143.562 294.701 144.557 296.874 144.71 299.184C144.863 301.494 144.163 303.779 142.743 305.607Z" fill="#9F616A"/>
<path d="M79.5986 306.65L121.231 292.889L128.246 308.202L89.4316 320.105L79.5986 306.65Z" fill="#7D0A7F"/>
<path d="M95.1748 396.711C81.2037 400.059 66.5749 399.435 52.9395 394.91L53.871 386.102L54.7353 377.873L67.6993 357.829L71.8551 351.407L88.98 357.633L90.7241 368.63L93.5032 386.169L95.1748 396.711Z" fill="#2F2E41"/>
<path d="M105.241 393.528C104.118 393.979 102.974 394.398 101.825 394.786C100.541 395.226 99.2442 395.629 97.9332 395.997C97.0223 396.251 96.1029 396.489 95.1748 396.711C81.2036 400.059 66.5748 399.435 52.9394 394.91C51.8681 394.553 50.8072 394.17 49.7566 393.772C49.9 396.836 49.8065 399.907 49.4771 402.958C47.9821 399.383 46.6796 395.731 45.575 392.017C45.4973 391.769 45.4249 391.52 45.3524 391.272C44.9902 390.019 44.6693 388.824 44.3795 387.701C44.0483 386.402 43.7636 385.196 43.5256 384.094C42.5785 379.767 42.2783 377.092 42.2783 377.092L52.396 356.08L54.4195 356.313L55.2579 356.406L60.3297 356.986L67.6993 357.829L79.6386 359.19L90.724 368.63L100.655 377.092C100.655 377.092 101.483 379.907 102.782 384.57C103.486 387.075 104.319 390.113 105.241 393.528Z" fill="#2F2E41"/>
<path d="M73.1643 253.76C83.0511 253.76 91.0659 245.746 91.0659 235.859C91.0659 225.972 83.0511 217.957 73.1643 217.957C63.2775 217.957 55.2627 225.972 55.2627 235.859C55.2627 245.746 63.2775 253.76 73.1643 253.76Z" fill="#9F616A"/>
<path d="M85.6255 273.57C85.6255 273.57 81.323 260.271 71.2047 260.271C68.6751 260.271 64.593 260.481 61.2744 262.646C47.9141 271.365 39.7863 286.184 39.1636 302.125L36.0527 381.762C36.0527 381.762 53.176 387.989 59.4026 385.654C65.6293 383.319 71.8559 367.753 71.8559 367.753C71.8559 367.753 70.2992 388.767 76.5259 387.989C82.7525 387.211 106.102 385.654 106.881 382.541C107.659 379.427 94.9654 312.487 94.9654 312.487L85.6255 273.57Z" fill="#7D0A7F"/>
<path d="M64.4611 241.107C66.067 241.011 67.6351 241.554 69.23 241.766C74.9358 242.523 80.8716 238.383 82.1315 232.766C82.2324 232.019 82.4554 231.292 82.7913 230.616C83.6695 229.183 85.6694 228.909 87.3181 229.239C88.9668 229.569 90.5295 230.34 92.2085 230.428C94.8009 230.564 97.2897 228.968 98.6714 226.771C100.053 224.573 100.444 221.868 100.258 219.279L99.0148 220.584C98.5098 219.515 98.3149 218.327 98.4521 217.153C97.7935 216.977 97.101 216.974 96.4407 217.143C95.7804 217.312 95.1746 217.648 94.6812 218.118C93.5854 218.234 94.4125 216.085 93.5983 215.342C93.2024 215.099 92.7305 215.011 92.2733 215.095C89.9421 215.117 88.0562 213.334 86.2191 211.898C83.0361 209.417 79.3139 207.719 75.3533 206.942C72.7209 206.429 69.9216 206.346 67.4251 207.326C65.3748 208.131 63.6587 209.598 62.071 211.124C58.1625 214.883 54.7014 219.299 53.0753 224.471C51.7534 228.708 51.716 233.242 52.9677 237.5C53.6229 239.712 55.5976 247.285 58.4883 247.461C62.1207 247.683 59.9399 241.377 64.4611 241.107Z" fill="#7D0A7F"/>
<path opacity="0.1" d="M72.021 297.14L53.6897 324.026L47.8271 386.476L72.021 297.14Z" fill="black"/>
<path d="M149.712 280.705C150.151 280.09 150.32 279.458 150.089 279.294C149.858 279.129 149.316 279.495 148.877 280.109C148.439 280.724 148.27 281.356 148.5 281.52C148.731 281.685 149.274 281.32 149.712 280.705Z" fill="#3F3D56"/>
<path d="M125.267 309.67C124.75 309.302 124.401 308.743 124.296 308.117C124.192 307.491 124.34 306.849 124.709 306.332L145.558 277.11C145.927 276.594 146.485 276.245 147.111 276.14C147.737 276.035 148.379 276.184 148.896 276.552L125.267 309.67Z" fill="white"/>
<path d="M126.123 312.591L124.916 311.73C124.709 311.583 124.533 311.396 124.399 311.18C124.264 310.964 124.173 310.724 124.131 310.473C124.089 310.222 124.097 309.966 124.154 309.718C124.211 309.47 124.317 309.236 124.465 309.029L148.203 275.757C148.455 275.404 148.837 275.166 149.265 275.094C149.693 275.023 150.131 275.124 150.484 275.376L151.936 276.412L126.123 312.591Z" fill="#2F2E41"/>
<path d="M147.486 279.116L145.897 281.343L146.454 281.74L148.043 279.514L147.486 279.116Z" fill="#D0CDE1"/>
<path d="M145.302 282.178L143.714 284.404L144.27 284.801L145.859 282.575L145.302 282.178Z" fill="#D0CDE1"/>
<path d="M51.9874 406.846C52.7905 405.73 53.3392 404.452 53.5948 403.101C53.8504 401.75 53.8068 400.36 53.4669 399.028C53.1269 397.696 52.4991 396.454 51.6275 395.391C50.7559 394.328 49.6618 393.468 48.4222 392.874L49.5833 371.415L36.7148 367.528L35.5007 397.856C34.6397 400.004 34.5968 402.394 35.3801 404.572C36.1634 406.751 37.7185 408.566 39.7507 409.674C41.7829 410.782 44.151 411.106 46.4063 410.585C48.6616 410.064 50.6474 408.734 51.9874 406.846Z" fill="#9F616A"/>
<path d="M51.9191 389.195H33.3023L28.1797 331.851L28.1973 331.799L45.622 280.624C46.2355 278.822 47.2175 277.168 48.5055 275.766C49.7935 274.365 51.3593 273.247 53.1031 272.484C54.8469 271.721 56.7305 271.329 58.634 271.334C60.5374 271.338 62.4191 271.74 64.159 272.511C65.899 273.283 67.4591 274.409 68.7401 275.817C70.0211 277.225 70.9948 278.884 71.5994 280.689C72.2039 282.494 72.4259 284.405 72.2513 286.301C72.0767 288.196 71.5093 290.034 70.5852 291.698L50.082 328.622L51.9191 389.195Z" fill="#7D0A7F"/>
<path d="M450.338 140.506C450.352 155.6 445.91 170.362 437.569 182.943C429.228 195.523 417.359 205.361 403.45 211.223C389.541 217.086 374.211 218.712 359.382 215.898C344.552 213.084 330.884 205.956 320.089 195.405C309.294 184.855 301.854 171.353 298.701 156.592C295.548 141.831 296.823 126.468 302.365 112.428C307.907 98.3884 317.471 86.2972 329.857 77.6702C342.242 69.0432 356.899 64.2643 371.989 63.9327C372.227 63.9275 372.466 63.9223 372.709 63.9172C373.05 63.912 373.397 63.912 373.744 63.912C374.613 63.912 375.483 63.9275 376.347 63.9586C378.252 64.0207 380.135 64.1518 381.998 64.3519C383.075 64.4657 384.136 64.6055 385.197 64.7607C385.316 64.7814 385.44 64.797 385.559 64.8177C389.937 65.4926 394.247 66.5507 398.44 67.9797C413.577 73.1419 426.719 82.9103 436.026 95.9161C445.332 108.922 450.337 124.513 450.338 140.506Z" fill="white"/>
<path d="M373.672 217.76C331.147 217.762 296.532 183.186 296.492 140.651C296.473 120.462 304.365 101.07 318.476 86.6316C332.588 72.1933 351.794 63.8589 371.978 63.4152L372.697 63.3996C373.916 63.3821 375.157 63.3978 376.366 63.4413C378.272 63.5037 380.187 63.6368 382.054 63.8375C383.042 63.9419 384.095 64.0765 385.272 64.2489L385.648 64.3078C403.825 67.1301 420.392 76.3644 432.352 90.3404C444.312 104.316 450.875 122.111 450.855 140.506V140.506C450.895 183.064 416.305 217.72 373.747 217.76L373.672 217.76ZM373.736 64.4296C373.394 64.4296 373.053 64.4296 372.716 64.4346L372.001 64.4503C330.897 65.3534 297.488 99.5368 297.527 140.65C297.567 182.612 331.72 216.723 373.672 216.725H373.746C415.733 216.685 449.86 182.494 449.82 140.507V140.506C449.84 122.357 443.364 104.799 431.563 91.0105C419.762 77.2216 403.415 68.1119 385.48 65.3292L385.108 65.2708C383.959 65.1025 382.919 64.9696 381.944 64.8667C380.101 64.6686 378.213 64.5372 376.33 64.4758C375.477 64.445 374.607 64.4296 373.744 64.4296H373.736Z" fill="#CBCBCB"/>
<path d="M315.136 144.641C315.287 144.401 314.893 143.88 314.255 143.476C313.617 143.072 312.977 142.938 312.825 143.177C312.674 143.417 313.068 143.938 313.706 144.342C314.344 144.746 314.984 144.88 315.136 144.641Z" fill="#3F3D56"/>
<path d="M312.897 140.188C313.066 139.923 313.284 139.693 313.541 139.512C313.798 139.331 314.088 139.202 314.395 139.133C314.702 139.065 315.019 139.057 315.328 139.111C315.638 139.164 315.934 139.278 316.2 139.447L346.527 158.652C346.793 158.82 347.023 159.039 347.204 159.295C347.385 159.552 347.513 159.842 347.582 160.149C347.651 160.456 347.659 160.773 347.605 161.083C347.551 161.392 347.437 161.688 347.269 161.954L312.897 140.188Z" fill="white"/>
<path d="M310.028 141.204L310.982 139.697C311.215 139.331 311.583 139.072 312.006 138.977C312.429 138.882 312.873 138.959 313.239 139.191L347.77 161.057C347.985 161.193 348.171 161.37 348.317 161.578C348.463 161.786 348.567 162.021 348.623 162.269C348.679 162.517 348.685 162.774 348.642 163.025C348.598 163.275 348.506 163.515 348.37 163.73L347.577 164.982L310.028 141.204Z" fill="#2F2E41"/>
<path d="M315.17 142.032L314.804 142.609L317.114 144.072L317.48 143.495L315.17 142.032Z" fill="#D0CDE1"/>
<path d="M318.347 144.044L317.981 144.621L320.292 146.084L320.658 145.507L318.347 144.044Z" fill="#D0CDE1"/>
<path d="M373.948 71.7967C385.853 71.7967 395.504 62.1458 395.504 50.2408C395.504 38.3357 385.853 28.6848 373.948 28.6848C362.043 28.6848 352.392 38.3357 352.392 50.2408C352.392 62.1458 362.043 71.7967 373.948 71.7967Z" fill="#FFB8B8"/>
<path d="M394.476 214.264C376.987 219.148 358.335 217.691 341.817 210.15L343.473 165.901L343.598 162.46L343.644 161.342L343.701 159.696L343.743 158.645C343.743 158.645 343.81 158.64 343.939 158.635C344.291 158.609 345.104 158.552 346.268 158.485C347.619 158.407 349.435 158.309 351.552 158.221C352.054 158.2 352.572 158.18 353.105 158.154C364.252 157.74 381.662 157.652 383.965 161.01L384.255 162.987L384.72 166.181L385.673 172.707C385.673 172.707 396.499 194.236 394.476 214.264Z" fill="#2F2E41"/>
<path d="M399.948 102.663L395.702 141.881L387.616 159.767L384.619 166.4L341.244 165.874L345.713 135.643C339.404 119.345 354.388 112.773 354.388 112.773L369.931 80.927C369.931 80.927 374.071 78.8569 384.882 78.3358C394.932 77.8515 387.009 79.3744 387.009 79.3744C400.153 78.06 399.948 102.663 399.948 102.663Z" fill="#7D0A7F"/>
<path opacity="0.2" d="M386.905 143.951L378.819 161.838C376.222 156.98 374.245 151.478 374.245 148.228C374.245 139.291 383.183 144.022 383.183 144.022C383.183 144.022 375.954 104.459 375.954 92.6298C375.954 84.7723 382.505 119.643 386.905 143.951Z" fill="black"/>
<path d="M398.792 37.1082C397.39 33.686 395.22 30.6314 392.451 28.1799C393.587 27.7991 394.535 27.0003 395.103 25.9458C395.933 24.3035 395.493 22.2439 394.365 20.774C393.337 19.5321 392.007 18.575 390.503 17.9945C391.605 18.4958 392.81 18.7277 394.02 18.6711C395.486 18.5186 396.951 17.368 396.864 15.9404C396.782 14.5804 395.444 13.6608 394.243 12.951C393.464 12.4906 392.685 12.0302 391.906 11.5698C392.137 11.1226 392.341 10.6614 392.515 10.1889C393.187 8.47139 393.349 6.59629 392.981 4.78888C392.614 2.98146 391.732 1.31859 390.443 0C392.993 2.59676 392.342 6.61562 389.822 9.877C389.741 9.9821 389.653 10.0846 389.569 10.1883C389.07 9.89318 388.57 9.59803 388.071 9.3029C386.825 8.56679 385.531 7.81346 384.084 7.63986C382.638 7.46626 380.99 8.03888 380.399 9.32925C379.767 10.7105 380.486 12.4731 379.662 13.7556C378.941 14.8777 377.368 15.1166 376.004 15.0635C374.64 15.0104 373.19 14.7949 371.977 15.3982C370.29 16.2367 369.736 18.5046 370.487 20.1959C370.82 20.9163 371.317 21.5488 371.939 22.043C368.328 22.5471 364.772 23.6192 361.278 24.7095C357.158 25.9952 352.96 27.3608 349.517 29.9632C346.073 32.5656 343.464 36.6736 343.793 40.9774C344.121 45.2813 348.396 52.0599 352.657 51.3718L353.306 49.3409C355.883 48.116 358.778 47.7261 361.587 48.2256C364.396 48.725 366.979 50.0889 368.976 52.1269C369.025 49.4172 373.15 48.5169 375.205 50.2836C377.26 52.0502 377.656 55.0372 377.816 57.7427C377.975 60.4482 378.126 63.394 379.908 65.4357C381.619 67.3953 384.532 68.0029 387.067 67.4192C389.602 66.8354 391.793 65.2274 393.608 63.3643C400.194 56.6052 402.314 45.8629 398.792 37.1082Z" fill="#7D0A7F"/>
<path d="M330.038 163.285C331.154 164.088 332.433 164.636 333.783 164.892C335.134 165.148 336.525 165.104 337.857 164.764C339.189 164.424 340.431 163.796 341.494 162.925C342.557 162.053 343.416 160.959 344.011 159.719L402.732 160.881L406.618 148.012L339.029 146.798C336.88 145.937 334.49 145.894 332.312 146.677C330.134 147.461 328.319 149.016 327.211 151.048C326.103 153.08 325.778 155.448 326.299 157.704C326.821 159.959 328.151 161.945 330.038 163.285Z" fill="#FFB8B8"/>
<path d="M387.126 77.2514C387.126 77.2514 373.456 78.3029 373.456 90.1324C373.456 101.962 385.811 144.022 385.811 144.022C385.811 144.022 376.873 139.291 376.873 148.228C376.873 157.166 391.858 183.191 393.435 165.841C393.435 165.841 416.042 176.882 414.728 156.115C413.414 135.347 399.218 91.4468 399.218 91.4468C399.218 91.4468 397.641 76.4628 387.126 77.2514Z" fill="#7D0A7F"/>
</g>
<defs>
<clipPath id="clip0_234_1299">
<rect width="450.855" height="410.827" fill="white"/>
</clipPath>
</defs>
</svg>
