<svg width="368" height="292" viewBox="0 0 368 292" fill="none" xmlns="http://www.w3.org/2000/svg">
<g clip-path="url(#clip0_133_45)">
<path d="M362.315 236.997C360.728 237.168 358.996 237.424 357.155 237.8C349.345 239.39 349.182 244.693 349.251 245.909L349.198 245.876C348.413 247.135 347.921 248.41 347.623 249.614L347.266 233.36C347.497 232.878 347.707 232.331 347.883 231.771C348.468 233.571 349.426 235.272 350.252 235.159C351.326 235.013 351.794 231.852 351.594 229.606C352.96 231.365 355.259 233.246 356.126 232.666C356.819 232.203 356.408 230.294 355.652 228.559C357.228 229.509 358.974 230.133 359.516 229.53C360.255 228.707 358.484 225.899 356.85 224.331C359.037 224.535 361.818 224.187 362.001 223.192C362.151 222.371 360.495 221.337 358.724 220.671C360.503 220.201 362.167 219.384 362.112 218.575C362.047 217.614 359.576 216.97 357.444 216.872C359.052 215.614 360.529 213.876 360.078 213.089C359.662 212.366 357.73 212.647 355.948 213.283C357.003 211.775 357.744 210.076 357.179 209.494C356.476 208.77 353.979 210.02 352.275 211.402C352.606 209.249 352.439 206.531 351.473 206.285C350.665 206.079 349.52 207.66 348.735 209.383C348.388 207.575 347.685 205.859 346.875 205.859C345.72 205.859 344.783 209.341 344.783 211.61C344.783 211.738 344.787 211.859 344.793 211.974C344.677 211.84 344.544 211.699 344.392 211.552C342.765 209.972 339.615 208.217 338.81 209.046C338.245 209.628 338.987 211.327 340.042 212.835C338.259 212.198 336.327 211.918 335.912 212.641C335.354 213.613 337.739 216.038 339.678 217.214C339.562 217.2 339.439 217.188 339.309 217.179C337.046 217.024 333.508 217.721 333.429 218.874C333.374 219.682 335.038 220.5 336.818 220.969C335.046 221.635 333.391 222.67 333.541 223.49C333.723 224.486 336.505 224.834 338.692 224.63C337.058 226.198 335.286 229.006 336.026 229.829C336.568 230.432 338.314 229.808 339.89 228.858C339.133 230.593 338.722 232.501 339.415 232.965C340.331 233.578 342.843 231.445 344.167 229.611C344.032 231.855 344.569 234.939 345.635 235.06C346.081 235.111 346.553 234.636 346.979 233.904L345.772 251.375C345.49 253.409 347.295 254.737 347.456 255.575L347.716 267.406C347.422 266.563 347.027 265.701 346.493 264.845L346.44 264.878C346.509 263.662 346.346 258.359 338.537 256.769C336.695 256.394 334.963 256.138 333.376 255.967C331.502 255.765 330.771 258.33 332.464 259.159C334.915 260.358 337.221 261.87 338.423 263.66C341.496 268.237 345.741 265.591 346.345 265.18C347.019 266.303 347.461 267.433 347.741 268.509L347.879 274.792C347.845 274.941 347.821 275.024 347.82 275.03L347.884 275.049L348.219 290.254L351.323 290.23L350.213 274.688C350.399 273.849 350.973 270.993 350.213 268.027L349.102 255.815C349.1 255.806 349.165 256.136 349.102 255.815L347.654 251.017C347.865 249.533 348.354 247.863 349.346 246.211C349.95 246.622 354.195 249.267 357.268 244.691C358.47 242.9 360.776 241.389 363.227 240.189C364.92 239.361 364.189 236.796 362.315 236.997ZM348.137 272.972L348.079 270.313C348.197 271.318 348.191 272.226 348.137 272.972Z" fill="white"/>
<path d="M45.9482 237.221C44.3609 237.392 42.6293 237.648 40.7873 238.023C32.9773 239.613 32.8152 244.917 32.8837 246.132L32.8306 246.099C32.0453 247.359 31.5535 248.634 31.2562 249.837L30.8986 233.584C31.1298 233.102 31.3403 232.555 31.5157 231.994C32.1003 233.795 33.0586 235.495 33.8847 235.383C34.9589 235.236 35.4272 232.075 35.2269 229.829C36.5928 231.589 38.8917 233.47 39.759 232.89C40.452 232.426 40.0411 230.518 39.2845 228.783C40.8609 229.732 42.6069 230.357 43.1487 229.754C43.888 228.931 42.1165 226.123 40.4827 224.555C42.6696 224.759 45.451 224.41 45.6333 223.415C45.7836 222.595 44.1282 221.56 42.3564 220.894C44.1361 220.425 45.8002 219.607 45.7451 218.799C45.6795 217.838 43.2088 217.194 41.0773 217.096C42.685 215.838 44.1622 214.099 43.7104 213.313C43.2951 212.59 41.3631 212.87 39.5806 213.507C40.6354 211.999 41.3771 210.299 40.8123 209.718C40.1087 208.993 37.6116 210.244 35.9075 211.626C36.2393 209.473 36.0716 206.755 35.1058 206.509C34.2978 206.303 33.1527 207.884 32.3676 209.606C32.0206 207.799 31.3181 206.083 30.5074 206.083C29.3525 206.083 28.4163 209.565 28.4163 211.833C28.4163 211.962 28.4197 212.082 28.4256 212.198C28.3097 212.063 28.1768 211.923 28.0253 211.776C26.3979 210.195 23.2477 208.441 22.4431 209.27C21.8783 209.851 22.6199 211.551 23.6748 213.059C21.8923 212.422 19.9602 212.142 19.5449 212.865C18.9869 213.836 21.3722 216.261 23.3112 217.437C23.1946 217.423 23.0722 217.411 22.9418 217.402C20.6785 217.248 17.1408 217.945 17.0622 219.097C17.007 219.906 18.6712 220.724 20.4509 221.193C18.6791 221.859 17.0237 222.894 17.1739 223.714C17.3563 224.709 20.1377 225.058 22.3246 224.854C20.6908 226.421 18.9192 229.229 19.6586 230.052C20.2004 230.655 21.9463 230.031 23.5228 229.081C22.7662 230.816 22.3553 232.725 23.0483 233.189C23.9641 233.801 26.4758 231.669 27.8001 229.834C27.6651 232.079 28.2022 235.162 29.2678 235.284C29.7134 235.335 30.1857 234.86 30.6118 234.128L29.4048 251.598C29.1227 253.633 30.9274 254.961 31.0887 255.799L31.349 267.63C31.0552 266.787 30.6595 265.925 30.126 265.069L30.0729 265.102C30.1414 263.886 29.9792 258.583 22.1693 256.993C20.3274 256.618 18.5957 256.361 17.0084 256.19C15.1347 255.989 14.4039 258.554 16.0965 259.382C18.5478 260.582 20.8537 262.094 22.0556 263.884C25.1284 268.46 29.3741 265.815 29.9777 265.404C30.652 266.526 31.0941 267.657 31.3733 268.733L31.5116 275.016C31.4777 275.165 31.4543 275.248 31.4524 275.254L31.5172 275.273L31.8518 290.478L34.9555 290.453L33.8454 274.911C34.0319 274.073 34.6058 271.217 33.8454 268.25L32.7352 256.039C32.7325 256.03 32.7982 256.36 32.7352 256.039L31.2871 251.241C31.4977 249.756 31.9864 248.087 32.9789 246.434C33.5825 246.845 37.8282 249.491 40.901 244.914C42.1029 243.124 44.4088 241.612 46.8601 240.413C48.5528 239.584 47.8219 237.019 45.9482 237.221ZM31.7702 273.196L31.7117 270.537C31.8297 271.542 31.8238 272.45 31.7702 273.196Z" fill="white"/>
<path d="M107.656 183.053C109.813 181.231 109.24 177.006 106.377 173.617C105.123 172.133 103.639 171.056 102.185 170.466L100.513 168.537L78.9321 141.496C78.9321 141.496 66.9806 114.596 63.4526 111.69C59.9246 108.784 55.7738 110.297 55.7738 110.297L52.5352 114.304L72.7167 151.863L93.3712 172.649L96.1594 175.556C96.4982 177.088 97.3125 178.732 98.566 180.215C101.429 183.605 105.499 184.875 107.656 183.053Z" fill="#A0616A"/>
<path d="M66.9177 116.692L72.326 124.623L80.0901 136.114L66.1393 140.94L53.8218 119.805L66.9177 116.692Z" fill="white"/>
<path d="M72.4091 89.697L68.4921 104.63L53.5586 101.693C53.5586 101.693 59.4341 90.921 57.9652 86.0248L72.4091 89.697Z" fill="#A0616A"/>
<path d="M56.6449 284.085L65.6377 284.085L69.9157 249.397L56.6431 249.398L56.6449 284.085Z" fill="#A0616A"/>
<path d="M87.4555 283.881C87.7355 284.353 87.8832 285.875 87.8832 286.423C87.8832 288.109 86.5167 289.475 84.831 289.475H56.9812C55.8312 289.475 54.899 288.543 54.899 287.393V286.234C54.899 286.234 53.5213 282.749 56.3577 278.454C56.3577 278.454 59.883 281.817 65.1508 276.549L66.7042 273.735L77.9487 281.959L84.1814 282.726C85.545 282.894 86.754 282.7 87.4555 283.881Z" fill="black"/>
<path d="M81.6147 183.7L69.2229 268.024H53.6757L55.743 219.89L56.8311 194.58L53.6757 182.533C53.6757 182.533 52.2371 179.855 51.0251 176.609C49.659 172.946 48.58 168.555 50.1818 166.472C50.7712 165.705 52.3036 165.136 54.386 164.713C55.6584 164.453 57.1394 164.251 58.7382 164.094C67.9323 163.184 81.0102 163.752 81.0102 163.752L81.3427 174.723L81.5271 180.85L81.6147 183.7Z" fill="#7D0A7F"/>
<path d="M40.8032 279.961L49.7006 281.268L58.9785 247.572L45.8469 245.643L40.8032 279.961Z" fill="#A0616A"/>
<path d="M71.3158 284.241C71.5242 284.748 71.449 286.276 71.3692 286.818C71.124 288.486 69.5733 289.639 67.9055 289.394L40.3519 285.343C39.2142 285.176 38.4274 284.118 38.5947 282.98L38.7633 281.833C38.7633 281.833 37.9072 278.185 41.3382 274.348C41.3382 274.348 44.3369 278.188 50.3148 273.742L52.261 271.184L62.1898 280.956L68.2446 282.622C69.5693 282.986 70.7937 282.97 71.3158 284.241Z" fill="black"/>
<path d="M81.8098 169.637L80.1102 184.274L70.8411 215.119L55.5827 265.901L40.2026 263.64L54.0061 191.437L52.6393 179.056C52.6393 179.056 52.1942 177.825 51.684 176.024C50.6713 172.459 49.401 166.654 50.7985 163.694C50.9872 163.291 51.2241 162.942 51.5171 162.659C52.0668 162.126 53.1839 161.802 54.6805 161.631C60.9364 160.924 73.8199 162.946 79.5527 163.939L81.8098 169.637Z" fill="#7D0A7F"/>
<path d="M69.9611 100.224L86.8531 121.523L83.8209 143.728L81.2225 166.323L50.621 161.672C50.621 161.672 57.2309 145.759 57.9653 145.024C58.6998 144.29 60.5445 146.104 59.2549 143.728C57.9653 141.352 56.4965 141.352 57.7205 140.128C58.9446 138.904 48.1729 122.991 48.1729 114.423C48.1729 105.855 53.3139 98.9999 53.3139 98.9999L69.9611 100.224Z" fill="white"/>
<path d="M66.0194 92.5173C72.3041 92.5173 77.3987 87.4226 77.3987 81.138C77.3987 74.8533 72.3041 69.7587 66.0194 69.7587C59.7348 69.7587 54.6401 74.8533 54.6401 81.138C54.6401 87.4226 59.7348 92.5173 66.0194 92.5173Z" fill="#A0616A"/>
<path d="M65.4876 102.895C65.4876 102.895 67.1904 89.4214 67.4918 85.5033C67.7932 81.5852 73.3238 75.4679 73.3238 75.4679L77.2419 78.6326C77.2419 78.6326 80.5572 78.6326 78.2968 73.8103C76.0364 68.988 71.8169 68.2345 71.8169 68.2345C71.8169 68.2345 71.3648 61.9053 63.5286 62.6587C55.6924 63.4122 52.2263 69.7415 52.2263 69.7415C52.2263 69.7415 51.7743 61.7546 46.8013 67.6317C41.8283 73.5089 38.9651 75.92 44.2394 77.8791C49.5138 79.8381 53.4319 78.3312 53.4319 78.3312C53.4319 78.3312 48.3082 79.386 49.2124 83.0027C50.1166 86.6195 37.3074 103.045 43.1846 104.854C49.0617 106.662 62.1723 111.032 63.6793 108.169C65.1862 105.306 65.4876 102.895 65.4876 102.895Z" fill="#7D0A7F"/>
<path d="M55.9242 202.997C58.7476 203.025 61.0719 199.451 61.1158 195.015C61.1351 193.072 60.714 191.287 59.9977 189.891L59.991 187.339L61.2977 152.766C61.2977 152.766 69.8069 124.587 69.0318 120.083C68.2567 115.578 64.1248 114.014 64.1248 114.014L59.0557 114.935L49.8218 156.561L51.8965 185.79L52.1106 189.813C51.3669 191.195 50.9106 192.971 50.8915 194.913C50.8476 199.35 53.1008 202.969 55.9242 202.997Z" fill="#A0616A"/>
<path d="M62.0353 109.501C62.0353 109.501 48.4857 133.577 50.4386 140.474L65.4577 141.085C65.4577 141.085 66.2779 141.722 66.2148 138.81C66.1518 135.898 69.5564 132.645 69.5564 132.645C69.5564 132.645 69.4925 134.064 69.0591 131.652C68.6257 129.239 76.9057 122.19 76.9057 122.19L62.0353 109.501Z" fill="white"/>
<path d="M96.9908 177.169L98.5636 139.672C98.5636 139.672 100.33 117.411 101.744 109.637C103.157 101.863 112.698 103.983 112.698 103.983L111.638 126.244L107.064 149.026L103.504 180.048C103.687 180.945 103.791 181.921 103.791 182.945C103.791 187.291 101.976 190.814 99.7374 190.814C97.4985 190.814 95.6836 187.291 95.6836 182.945C95.6836 180.659 96.1889 178.607 96.9908 177.169Z" fill="#FFB6B6"/>
<path d="M173.553 167.453C171.88 165.461 169.877 164.107 168.079 163.586L146.924 139.672C146.924 139.672 145.157 117.411 143.744 109.637C142.33 101.863 132.79 103.983 132.79 103.983L133.85 126.244L139.857 150.272L164.611 171.289C165.043 172.076 165.573 172.864 166.208 173.62C169.22 177.207 173.305 178.734 175.334 177.031C177.362 175.328 176.565 171.04 173.553 167.453Z" fill="#FFB6B6"/>
<path d="M127.009 100.98L124.555 91.5457L114.994 91.0858L112.134 104.09L127.009 100.98Z" fill="#FFB6B6"/>
<path opacity="0.1" d="M127.009 100.98L124.555 91.5457L114.994 91.0858L112.134 104.09L127.009 100.98Z" fill="black"/>
<path d="M151.42 255.535L160.374 255.024L159.2 282.503L153.132 282.851L151.42 255.535Z" fill="#FFB6B6"/>
<path d="M159.976 273.815L156.867 275.233L156.871 277.118C156.871 277.118 156.121 274.937 152.094 274.461L151.614 276.288C151.614 276.288 150.052 278.08 150.32 281.322L151.345 290.004L154.381 289.934L154.872 283.893C154.872 283.893 155.708 282.522 159.561 289.036C159.561 289.036 163.805 290.106 170.378 287.902C171.281 287.599 171.909 286.756 171.897 285.803C171.89 285.278 171.685 284.792 171.026 284.617C169.347 284.174 167.709 284.736 166.625 283.397C165.541 282.057 159.976 273.815 159.976 273.815Z" fill="#7D0A7F"/>
<path d="M103.365 255.535L112.319 255.024L111.144 282.503L105.077 282.851L103.365 255.535Z" fill="#FFB6B6"/>
<path d="M111.92 273.815L108.811 275.233L108.815 277.118C108.815 277.118 108.065 274.937 104.039 274.461L103.558 276.288C103.558 276.288 101.996 278.08 102.264 281.322L103.289 290.004L106.326 289.934L106.816 283.893C106.816 283.893 107.653 282.522 111.505 289.036C111.505 289.036 115.75 290.106 122.322 287.902C123.225 287.599 123.853 286.756 123.841 285.803C123.835 285.278 123.629 284.792 122.97 284.617C121.292 284.174 119.653 284.736 118.569 283.397C117.486 282.057 111.92 273.815 111.92 273.815Z" fill="#7D0A7F"/>
<path d="M119.658 97.1012C125.513 97.1012 130.259 92.3552 130.259 86.5006C130.259 80.6461 125.513 75.9 119.658 75.9C113.804 75.9 109.058 80.6461 109.058 86.5006C109.058 92.3552 113.804 97.1012 119.658 97.1012Z" fill="#FFB6B6"/>
<path d="M113.646 88.263C113.646 88.263 118.307 80.637 122.973 81.4787C127.638 82.3204 130.07 83.0804 130.07 83.0804C130.07 83.0804 131.97 77.0001 125.592 74.083C125.592 74.083 134.618 66.5253 124.998 61.6751C115.377 56.8249 109.391 61.5255 109.391 61.5255C109.391 61.5255 101.428 68.2783 110.257 74.5278C110.257 74.5278 102.616 83.2316 110.333 91.5457C110.333 91.5457 108.971 85.215 110.824 86.5128C112.677 87.8106 113.646 88.263 113.646 88.263Z" fill="black"/>
<path d="M112.521 101.687L127.008 99.9198L138.139 108.93C138.139 108.93 143.675 124.354 139.552 133.665C139.454 133.888 139.376 149.389 139.376 149.389H108.595C108.595 149.389 108.625 138.838 107.449 135.017C107.281 134.471 107.088 134.063 106.867 133.842C105.1 132.075 100.86 120.768 102.98 115.821C105.1 110.874 112.521 101.687 112.521 101.687Z" fill="#7D0A7F"/>
<path d="M139.553 148.682L158.988 210.519L163.228 259.282H151.39L141.32 214.053L127.451 187.871L113.758 262.816H101.81L102.098 161.403L108.621 148.682H139.553Z" fill="black"/>
<path d="M227.817 113.26L225.983 101.797L238.364 96.7527L240.198 114.177L227.817 113.26Z" fill="#A0616A"/>
<path opacity="0.1" d="M227.817 113.26L225.983 101.797L238.364 96.7527L240.198 114.177L227.817 113.26Z" fill="black"/>
<path d="M173.528 165.673C171.457 168.154 171.059 171.233 172.638 172.55C174.217 173.868 177.174 172.925 179.245 170.443C180.086 169.463 180.68 168.296 180.977 167.039L189.617 156.419L185.409 153.013L176.568 163.36C175.384 163.877 174.342 164.671 173.528 165.673Z" fill="#A0616A"/>
<path d="M211.287 113.178L214.295 125.089L199.577 148.649L184.552 163.749L179.682 159.709L194.835 140.855L206.32 116.562L211.287 113.178Z" fill="white"/>
<path d="M222.314 265.039L219.563 276.502L227.817 278.795L229.651 266.414L222.314 265.039Z" fill="#A0616A"/>
<path d="M209.016 227.896L217.729 235.233L223.231 243.945L215.436 248.989L202.138 233.857L209.016 227.896Z" fill="#A0616A"/>
<path d="M211.767 152.237L204.431 176.998C204.431 176.998 171.874 205.428 175.084 211.389C178.294 217.35 199.845 233.857 199.845 233.857C199.845 233.857 198.246 239.136 202.943 236.955C207.641 234.774 212.685 228.813 212.685 228.813C212.685 228.813 212.685 224.228 210.392 225.145C208.099 226.062 197.553 213.681 197.553 213.681L222.171 192.92L220.48 263.119C220.48 263.119 214.977 267.93 220.48 268.318C225.982 268.707 229.192 269.624 229.192 269.624C229.192 269.624 235.612 267.331 233.319 265.038L242.031 227.438L250.468 188.042C251.453 183.441 251.112 178.655 249.486 174.239L243.407 157.739L211.767 152.237Z" fill="#7D0A7F"/>
<path d="M226.441 275.126C226.441 275.126 225.983 273.292 224.148 273.292H218.547C218.547 273.292 216.812 281.087 217.27 281.087C217.729 281.087 209.934 291.175 218.187 291.634C226.441 292.092 228.734 291.175 228.734 291.175L229.651 287.556C229.651 287.556 231.027 285.214 230.568 283.38C230.11 281.546 226.441 275.126 226.441 275.126Z" fill="black"/>
<path d="M214.977 245.321C214.977 245.321 209.711 245.238 210.968 246.655C212.226 248.072 214.519 250.365 214.519 250.365C214.519 250.365 219.973 261.37 222.519 259.307C225.065 257.243 229.192 234.316 227.817 231.565C226.441 228.814 224.607 228.814 224.607 228.814L216.147 233.901C216.147 233.901 221.397 246.697 214.977 245.321Z" fill="black"/>
<path d="M240.886 111.656L226.212 107.987L210.622 113.031C210.622 113.031 203.744 132.29 206.036 139.168C208.329 146.046 210.249 156.696 210.249 156.696C210.249 156.696 208.558 153.612 221.856 157.739C235.154 161.866 244.783 161.408 244.783 161.408L245.242 144.9L251.002 130.237C253.464 123.97 250.81 116.854 244.846 113.73L240.886 111.656Z" fill="white"/>
<path d="M232.589 106.325C239.431 106.325 244.977 100.779 244.977 93.9382C244.977 87.0969 239.431 81.5509 232.589 81.5509C225.748 81.5509 220.202 87.0969 220.202 93.9382C220.202 100.779 225.748 106.325 232.589 106.325Z" fill="#A0616A"/>
<path d="M242.594 102.038C242.594 102.038 240.689 103.943 238.783 104.896C238.235 105.17 238.278 104.775 238.616 104.074C240.334 100.511 239.674 96.2587 236.877 93.4619L237.354 90.6033L221.155 89.174C221.155 89.174 219.249 81.5511 229.254 80.1217C230.955 79.8788 223.061 79.6453 224.966 75.8338C226.872 72.0224 228.301 72.9753 229.254 70.1167C230.207 67.2581 230.207 64.8759 233.542 65.3523C236.877 65.8288 236.877 67.7345 240.212 65.8288C243.547 63.923 251.646 65.8288 250.217 68.6874C248.788 71.546 246.406 73.9281 248.311 75.8338C250.217 77.7396 254.505 81.0746 251.17 83.4568C247.835 85.8389 246.882 87.2682 247.359 88.2211C247.835 89.174 244.5 87.2682 244.5 87.2682C244.5 87.2682 247.835 93.9383 246.406 96.3205C244.976 98.7026 242.594 102.038 242.594 102.038Z" fill="#7D0A7F"/>
<path d="M312.545 141.971H287.097V174.457H312.545V141.971Z" fill="#FFB6B6"/>
<path d="M288.722 83.4956C287.432 81.0742 286.829 80.0195 287.098 78.6227C287.569 76.1691 290.311 74.8353 291.429 74.2913C295.021 72.5439 299.677 72.6483 303.341 74.8327C305.542 76.145 306.716 77.81 307.672 79.1642C308.528 80.3777 311.191 84.1512 310.921 88.9099C310.717 92.4823 309.083 92.7041 309.296 94.8657C309.831 100.292 320.259 100.214 322.832 106.236C325.153 111.666 320.502 120.687 313.628 124.103C303.162 129.304 291.833 119.382 289.805 117.606C284.917 113.325 281.684 107.434 282.766 106.236C283.4 105.534 285.067 106.935 287.639 106.236C290.572 105.438 292.127 102.605 292.512 101.904C294.732 97.8609 293.43 93.4369 293.053 92.1585C292.704 90.9711 291.376 88.4793 288.722 83.4956Z" fill="#2F2E41"/>
<path d="M275.094 284.949L267.674 284.948L264.144 256.327L275.096 256.328L275.094 284.949Z" fill="#FFB6B6"/>
<path d="M249.671 284.781C249.44 285.17 249.318 286.426 249.318 286.879C249.318 288.269 250.446 289.397 251.837 289.397H274.816C275.765 289.397 276.534 288.628 276.534 287.679V286.722C276.534 286.722 277.671 283.847 275.331 280.303C275.331 280.303 272.422 283.078 268.075 278.731L266.794 276.409L257.516 283.195L252.373 283.828C251.248 283.966 250.25 283.806 249.671 284.781Z" fill="#7D0A7F"/>
<path d="M317.867 284.949L310.447 284.948L306.917 256.327L317.869 256.328L317.867 284.949Z" fill="#FFB6B6"/>
<path d="M292.444 284.781C292.213 285.17 292.091 286.426 292.091 286.879C292.091 288.269 293.219 289.397 294.61 289.397H317.589C318.538 289.397 319.307 288.628 319.307 287.679V286.722C319.307 286.722 320.444 283.847 318.104 280.303C318.104 280.303 315.195 283.078 310.848 278.731L309.567 276.409L300.288 283.195L295.146 283.828C294.021 283.966 293.023 283.806 292.444 284.781Z" fill="#7D0A7F"/>
<path d="M294.136 95.4071L294.678 112.191L314.169 114.899L304.153 92.1116L294.136 95.4071Z" fill="#FFB6B6"/>
<path d="M299.55 100.821C305.83 100.821 310.92 95.7308 310.92 89.4513C310.92 83.1717 305.83 78.0812 299.55 78.0812C293.271 78.0812 288.18 83.1717 288.18 89.4513C288.18 95.7308 293.271 100.821 299.55 100.821Z" fill="#FFB6B6"/>
<path d="M312.545 161.462C312.545 161.462 324.727 174.727 317.147 186.638L318.23 225.08C318.23 225.08 322.74 252.928 317.507 271.219L308.484 270.56L301.987 222.914L295.49 191.511L280.329 222.373C280.329 222.373 281.412 244.572 275.998 268.395H264.086L265.169 213.169L284.932 155.506L312.545 161.462Z" fill="black"/>
<path d="M294.678 105.694L295.493 105.398L306.589 101.363C306.589 101.363 320.667 112.192 320.667 118.147C320.667 124.103 313.086 145.76 313.086 145.76C313.086 145.76 323.374 156.589 314.169 157.13C304.965 157.672 300.13 148.897 284.97 155.394L283.849 141.429C283.849 141.429 277.352 127.352 280.601 124.103L294.678 105.694Z" fill="#7D0A7F"/>
<path d="M310.077 189.591C310.146 194.013 312.484 197.562 315.298 197.517C318.112 197.472 320.336 193.852 320.266 189.428C320.262 187.661 319.835 185.92 319.021 184.352L318.489 165.62L311.083 165.849L311.161 184.476C310.396 186.07 310.024 187.824 310.077 189.591Z" fill="#FFB6B6"/>
<path d="M313.954 106.876C318.165 106.189 321.985 109.447 321.971 113.714L319.744 180.815L310.933 180.608L308.162 113.758C308.129 110.349 310.589 107.426 313.954 106.876Z" fill="#7D0A7F"/>
<path d="M239.279 156.562C235.815 159.312 234.427 163.328 236.177 165.532C237.928 167.735 242.154 167.292 245.618 164.541C247.017 163.461 248.137 162.061 248.884 160.46L263.411 148.622L258.715 142.89L243.995 154.304C242.265 154.669 240.648 155.443 239.279 156.562Z" fill="#FFB6B6"/>
<path d="M307.22 109.226C310.332 112.146 310.077 117.16 306.685 119.749L252.128 158.878L246.923 151.766L298.235 108.828C300.918 106.724 304.734 106.893 307.22 109.226Z" fill="#7D0A7F"/>
<path d="M294.136 82.9542C292.847 80.5329 292.244 79.4781 292.512 78.0813C292.984 75.6277 295.725 74.2939 296.844 73.7499C300.435 72.0026 305.092 72.107 308.755 74.2913C310.956 75.6036 312.131 77.2687 313.087 78.6228C313.943 79.8363 316.606 83.6098 316.335 88.3685C316.132 91.9409 314.498 92.1627 314.711 94.3243C315.246 99.7505 325.673 99.6725 328.247 105.694C330.567 111.125 325.917 120.145 319.042 123.562C308.577 128.763 297.248 118.841 295.219 117.064C290.331 112.784 287.099 106.893 288.181 105.694C288.814 104.993 290.481 106.394 293.054 105.694C295.986 104.897 297.542 102.063 297.926 101.363C300.147 97.3195 298.844 92.8955 298.468 91.6171C298.118 90.4297 296.791 87.9379 294.136 82.9542Z" fill="black"/>
<path d="M234.251 156.484C231.157 157.418 229.132 159.771 229.727 161.74C230.321 163.708 233.31 164.546 236.405 163.612C237.646 163.255 238.784 162.607 239.723 161.72L252.779 157.598L251.135 152.439L238.062 156.223C236.789 156.004 235.482 156.094 234.251 156.484Z" fill="#A0616A"/>
<path d="M256.934 122.661L243.177 112.573L243.636 131.831L256.475 148.339L242.719 153.842L243.177 161.698C243.177 161.698 260.602 157.51 263.353 157.051C266.104 156.593 268.397 150.173 268.397 150.173L256.934 122.661Z" fill="white"/>
</g>
<defs>
<clipPath id="clip0_133_45">
<rect width="367.423" height="291.762" fill="white"/>
</clipPath>
</defs>
</svg>
