<svg width="500" height="345" viewBox="0 0 500 345" fill="none" xmlns="http://www.w3.org/2000/svg">
<path opacity="0.5" d="M35.1437 343.428C12.8529 309.05 0 268.504 0 225.082C0 100.899 105.183 0.249146 234.933 0.249146C364.704 0.249146 469.886 100.899 469.886 225.082C469.886 268.504 457.013 309.05 434.743 343.428H35.1437Z" fill="#B0CFF4"/>
<g style="mix-blend-mode:screen" opacity="0.3">
<path d="M96.7693 72.8959C106.932 71.6541 117.28 72.6889 127.484 71.9024C137.708 71.1159 147.767 68.4874 156.977 64.1824C159.523 62.982 162.048 61.6574 164.821 61.0365C168.526 60.1879 172.396 60.6846 176.205 60.8295C183.635 61.1192 191.107 60.043 198.123 57.6835C200.482 56.8763 203.132 55.5724 203.504 53.1923C204.001 50.1705 200.565 47.9973 197.543 46.9624C194.542 45.9276 190.92 44.6444 190.258 41.6433C189.968 40.298 190.362 38.7664 189.596 37.5866C189.078 36.8002 188.147 36.3655 187.236 35.993C177.219 31.8742 166.353 30.2599 155.528 29.8252C153.148 29.7217 150.706 29.8045 148.243 29.908C161.199 22.7882 174.922 16.8275 189.285 12.1499C196.157 12.5018 203.049 12.5846 209.941 12.3776C224.367 11.9636 239.89 10.6183 252.204 17.8209C253.819 18.7523 255.433 19.9527 255.951 21.6706C257.255 25.9135 251.584 28.8111 247.092 29.908C246.389 32.847 250.445 34.5235 253.55 35.0409C263.588 36.7381 273.46 39.2631 283.043 42.5746C289.832 44.9134 297.386 48.6596 298.711 55.4482C299.663 60.2293 296.972 65.1552 293.019 68.1976C289.066 71.2608 284.016 72.7096 279.049 73.6203C262.077 76.7663 244.526 74.6137 227.306 76.1867C225.008 76.3937 222.608 76.7042 220.745 78.0081C217.785 80.0571 216.999 83.886 214.929 86.7629C210.831 92.4753 202.594 93.5102 195.37 93.8827C179.268 94.7313 163.124 94.8555 147.001 94.276C142.945 94.1104 138.805 93.9241 134.893 94.959C130.775 96.0145 127.153 98.3533 123.324 100.195C114.238 104.542 104.013 106.053 93.9752 107.522C83.668 109.033 73.2781 110.544 62.8674 110.296C71.0014 97.215 80.5014 85.0037 91.1397 73.8066C93.0024 73.434 94.8858 73.1236 96.7693 72.8959Z" fill="white"/>
</g>
<g style="mix-blend-mode:screen" opacity="0.3">
<path d="M137.749 146.639C139.343 144.549 141.764 143.224 144.144 142.065C179.309 124.928 221.241 130.868 260.586 127.887C270.645 127.122 280.869 125.673 289.935 121.43C300.532 116.463 309.763 107.646 321.539 106.942C329.818 106.445 340.788 108.95 344.347 101.768C345.217 100.008 345.155 97.9801 345.424 96.0553C349.046 69.6872 401.264 77.3658 406.356 77.5935C418.829 78.1454 431.303 78.6974 443.776 79.2493C456.112 93.0956 466.729 108.391 475.298 124.845C463.563 124.742 451.848 124.659 440.113 124.555C434.318 124.514 428.44 124.472 422.893 126.087C415.359 128.301 409.047 133.414 401.513 135.69C395.738 137.45 389.571 137.408 383.506 137.367C361.581 137.201 339.663 137.036 317.752 136.87C313.612 136.849 309.349 136.829 305.499 138.277C301.711 139.685 298.628 142.396 295.213 144.487C283.933 151.42 269.693 151.544 256.53 153.966C252.349 154.732 247.754 156.098 245.746 159.678C242.414 165.68 248.727 172.531 255.081 175.511C280.642 187.516 312.101 175.884 339.297 183.935C346.562 186.067 353.309 189.586 360.408 192.235C383.651 200.948 409.502 200.203 434.338 197.699C455.346 195.588 476.436 192.318 497.485 192.856C499.058 203.37 499.886 214.132 499.886 225.081C499.886 228.517 499.803 231.911 499.638 235.305C487.896 235.568 476.153 235.823 464.411 236.071C442.245 236.547 420.016 237.023 397.912 235.305C385.535 234.353 373.054 232.656 361.567 228.124C354.634 225.391 348.135 221.645 341.015 219.41C328.493 215.519 314.958 216.554 301.794 215.912C281.49 214.939 261.642 209.91 241.98 204.881C211.679 197.161 137.045 185.591 135.141 156.284C134.913 152.931 135.679 149.371 137.749 146.639Z" fill="white"/>
</g>
<path d="M46.5784 345H485.585C486.971 345 488.089 343.862 488.089 342.496C488.089 341.109 486.971 339.991 485.585 339.991H46.5784C45.2124 339.991 44.0947 341.109 44.0947 342.496C44.0947 343.862 45.2124 345 46.5784 345Z" fill="#466EB6"/>
<path d="M363.72 150.779H192.783C191.438 150.779 190.341 149.682 190.341 148.316V43.858C190.341 42.5127 191.438 41.4158 192.783 41.4158H364.879C365.583 41.4158 366.163 41.9953 366.163 42.699V148.316C366.163 149.682 365.066 150.779 363.72 150.779Z" fill="white"/>
<path d="M362.5 146.577H193.922C193.653 146.577 193.426 146.35 193.426 146.081V46.1137C193.426 45.8446 193.653 45.6169 193.922 45.6169H362.5C362.769 45.6169 362.997 45.8446 362.997 46.1137V146.081C362.997 146.35 362.769 146.577 362.5 146.577Z" fill="#466EB6"/>
<g style="mix-blend-mode:screen" opacity="0.3">
<path d="M362.997 57.642V46.776C362.997 46.1344 362.562 45.6169 362.024 45.6169H194.398C193.86 45.6169 193.426 46.1344 193.426 46.776V115.035L362.997 57.642Z" fill="#525252"/>
</g>
<path d="M238.503 143.804H224.946V146.577H238.503V143.804Z" fill="white"/>
<path d="M257.379 67.0595H216.212C215.302 67.0595 214.536 66.3144 214.536 65.3831V64.7622C214.536 63.8308 215.302 63.0857 216.212 63.0857H257.379C258.31 63.0857 259.055 63.8308 259.055 64.7622V65.3831C259.055 66.3144 258.31 67.0595 257.379 67.0595Z" fill="white"/>
<path d="M242.932 80.0155H216.212C215.302 80.0155 214.536 79.2704 214.536 78.339V77.7181C214.536 76.8074 215.302 76.0416 216.212 76.0416H242.932C243.864 76.0416 244.609 76.8074 244.609 77.7181V78.339C244.609 79.2704 243.864 80.0155 242.932 80.0155Z" fill="white"/>
<path d="M283.582 80.0155H249.928C248.997 80.0155 248.252 79.2704 248.252 78.339V77.7181C248.252 76.8074 248.997 76.0416 249.928 76.0416H283.582C284.492 76.0416 285.258 76.8074 285.258 77.7181V78.339C285.258 79.2704 284.492 80.0155 283.582 80.0155Z" fill="white"/>
<path d="M339.981 80.0155H291.612C290.68 80.0155 289.935 79.2704 289.935 78.339V77.7181C289.935 76.8074 290.68 76.0416 291.612 76.0416H339.981C340.892 76.0416 341.657 76.8074 341.657 77.7181V78.339C341.657 79.2704 340.892 80.0155 339.981 80.0155Z" fill="white"/>
<path d="M340.188 67.0595H268.886C267.955 67.0595 267.21 66.3144 267.21 65.3831V64.7622C267.21 63.8308 267.955 63.0857 268.886 63.0857H340.188C341.119 63.0857 341.864 63.8308 341.864 64.7622V65.3831C341.864 66.3144 341.119 67.0595 340.188 67.0595Z" fill="white"/>
<path d="M340.188 105.39H216.212C215.302 105.39 214.536 104.645 214.536 103.714V103.093C214.536 102.182 215.302 101.437 216.212 101.437H340.188C341.119 101.437 341.865 102.182 341.865 103.093V103.714C341.865 104.645 341.119 105.39 340.188 105.39Z" fill="white"/>
<path d="M278.635 92.8477H216.212C215.302 92.8477 214.536 92.1026 214.536 91.1712V90.571C214.536 89.6396 215.302 88.8945 216.212 88.8945H278.635C279.566 88.8945 280.311 89.6396 280.311 90.571V91.1712C280.311 92.1026 279.566 92.8477 278.635 92.8477Z" fill="white"/>
<path d="M340.189 92.8477H285.259C284.327 92.8477 283.582 92.1026 283.582 91.1712V90.571C283.582 89.6396 284.327 88.8945 285.259 88.8945H340.189C341.12 88.8945 341.865 89.6396 341.865 90.571V91.1712C341.865 92.1026 341.12 92.8477 340.189 92.8477Z" fill="white"/>
<path d="M421.339 338.647L418.193 338.191C418.607 307.829 418.98 264.116 418.297 261.529C418.297 261.529 418.338 261.695 418.504 261.881L421.05 260.411C421.463 260.867 421.691 261.136 421.795 274.051C421.836 280.695 421.815 289.863 421.733 301.309C421.608 320.806 421.339 338.44 421.339 338.647Z" fill="#13375B"/>
<path d="M447.437 257.534L445.74 256.127C451.908 248.842 455.302 234.954 455.551 215.975C455.737 201.528 454.019 189.11 453.998 188.986L456.192 188.675C456.213 188.799 457.952 201.362 457.765 215.975C457.641 224.605 456.896 232.243 455.53 238.721C453.812 246.896 451.08 253.229 447.437 257.534Z" fill="#184655"/>
<path d="M431.399 153.635C432.309 153.635 466.273 149.951 466.874 154.504C467.474 159.058 468.695 194.615 462.631 195.837C456.546 197.037 427.073 191.573 427.073 191.573L431.399 153.635Z" fill="#466EB6"/>
<path d="M387.872 259.935C389.176 259.687 384.519 264.489 387.872 266.02C391.205 267.531 441.664 266.62 445.597 264.799C449.55 262.978 454.413 259.935 452.592 255.982C450.771 252.05 419.684 246.875 419.684 246.875L391.515 254.471C391.515 254.471 386.361 260.246 387.872 259.935Z" fill="#466EB6"/>
<path d="M440.505 336.37H399.297C398.655 336.37 398.117 336.887 398.117 337.549V339.805C398.117 339.929 398.2 340.012 398.324 340.012H441.478C441.602 340.012 441.685 339.929 441.685 339.805V337.549C441.685 336.887 441.167 336.37 440.505 336.37Z" fill="#346384"/>
<path d="M423.823 333.285H416.207C415.689 333.285 415.275 333.699 415.275 334.216V337.259C415.275 337.776 415.689 338.19 416.207 338.19H423.823C424.34 338.19 424.754 337.776 424.754 337.259V334.216C424.754 333.699 424.34 333.285 423.823 333.285Z" fill="#346384"/>
<path d="M400.249 247.807C401.243 247.311 428.128 228.456 428.128 228.456L395.241 225.227C395.241 225.227 343.788 232.264 336.275 238.514C335.737 238.97 335.24 239.404 334.785 239.818C331.1 243.151 330.48 248.697 333.274 252.795C338.344 260.246 335.157 259.481 343.788 271.713C353.971 286.201 377.876 314.928 377.876 314.928C380.753 318.467 384.706 323.414 384.747 324.056C384.809 325.09 384.954 334.673 383.775 335.708C382.616 336.722 380.711 338.026 381.063 338.709C381.622 339.765 384.665 339.703 388.907 339.475C390.149 339.413 393.978 330.679 394.475 329.23C395.179 327.119 396.917 322.358 396.276 320.868C395.944 320.165 394.434 318.695 392.322 317.308C390.956 316.439 387.252 311.699 384.561 308.098C384.561 308.098 360.056 262.213 357.51 260.433C354.985 258.632 345.071 247.311 345.071 247.311C345.071 247.311 361.629 253.582 362.374 253.582C363.119 253.582 399.235 248.304 400.249 247.807Z" fill="#F48C7F"/>
<path d="M392.592 317.495C392.592 317.495 386.424 334.384 383.837 335.294C383.154 335.522 379.077 336.826 378.456 338.275C378.27 338.709 378.456 340.179 378.456 340.179H390.833C390.833 340.179 392.778 336.143 393.461 332.562C393.461 332.562 398.573 320.661 398.263 319.834C397.332 317.329 392.592 317.495 392.592 317.495Z" fill="#0E2E35"/>
<path d="M431.398 228.643C431.398 228.643 402.919 225.89 393.129 228.643C383.36 231.395 343.973 243.441 341.2 246.463C338.447 249.464 302.828 321.138 302.807 321.159C300.861 324.946 298.916 328.548 298.129 329.417C297.053 330.617 295.997 331.818 294.735 332.563C294.259 332.873 292.686 333.743 292.313 333.929C286.58 336.682 285.132 337.572 283.331 338.876C282.234 339.683 282.048 339.662 283.414 339.641L305.29 338.751C305.29 338.751 307.753 339.248 308.726 337.447C309.699 335.647 309.037 333.598 308.664 331.673C308.416 330.348 308.685 328.568 310.258 325.919C313.756 320.02 340.372 289.202 345.898 279.454C351.445 269.664 353.039 263.435 353.225 260.537C369.783 260.537 418.276 260.185 426.741 252.3C435.206 244.393 431.398 228.643 431.398 228.643Z" fill="#F7A491"/>
<path d="M294.737 332.562C301.36 334.259 306.079 333.183 308.832 332.086C309.535 334.072 310.612 336.515 310.136 337.943C309.515 339.723 308.645 340.116 307.9 340.137C301.857 340.302 285.775 340.509 281.16 340.571C280.518 340.571 280.166 339.826 280.58 339.33C281.718 337.984 294.261 332.872 294.737 332.562Z" fill="#184655"/>
<path d="M395.138 225.122C395.138 225.122 343.665 232.263 336.152 238.534C336.069 238.596 335.489 239.114 335.262 239.383C336.131 238.907 337.414 238.431 337.414 238.431C337.414 238.431 349.274 237.665 358.856 252.36C360.719 253.022 362.085 253.477 362.292 253.477C363.037 253.477 399.154 248.2 400.168 247.703C401.161 247.206 428.047 228.351 428.047 228.351L395.138 225.122Z" fill="#13375B"/>
<path d="M431.399 228.643C431.399 228.643 402.92 225.89 393.13 228.643C385.887 230.692 362.437 237.812 349.604 242.593C354.137 245.718 359.167 251.12 363.182 260.537C384.479 260.558 421.423 260.144 428.564 253.479C437.029 245.573 431.399 228.643 431.399 228.643Z" fill="#13375B"/>
<path d="M346.933 198.175L376.965 191.532C376.965 191.532 387.831 177.582 398.262 165.577C401.325 168.599 403.043 173.277 406.127 176.278L383.195 201.652C382.367 202.563 381.208 203.081 379.966 203.081L348.134 203.184L337.247 204.053V197.099L346.933 198.175Z" fill="#F48C7F"/>
<path d="M403.251 161.335C397.994 159.948 376.966 191.532 376.966 191.532C376.966 191.532 379.822 192.857 384.893 199.77L393.006 190.808V190.828C393.006 190.828 409.108 175.616 412.172 170.318C415.235 165.019 408.508 162.722 403.251 161.335Z" fill="#C8D2DE"/>
<path d="M391.701 124.742C391.826 124.473 391.908 124.349 391.908 124.349V124.225C392.281 123.287 392.695 122.362 393.15 121.452C396.151 115.346 403.623 111.869 410.412 111.869C412.626 111.869 414.634 112.159 416.496 112.697C419.27 113.938 426.079 118.264 427.859 131.158C428.501 135.857 427.507 140.327 425.396 144.115C427.218 145.274 429.639 147.592 431.378 152.311C434.586 160.942 450.585 162.866 452.199 174.395C453.793 185.923 437.132 206.744 419.518 193.291C406.127 183.046 408.3 163.549 410.101 154.795C405.92 155.374 401.429 154.588 397.103 151.98C391.619 148.668 389.383 144.177 388.783 139.789C388.928 134.677 389.818 129.627 391.701 124.742Z" fill="#184655"/>
<path d="M413.537 157.527C413.537 157.527 424.217 155.416 429.081 159.472C433.945 163.549 428.046 199.707 428.046 205.709C428.046 211.712 431.399 228.642 431.399 228.642C431.399 228.642 399.049 234.292 393.916 225.31C393.916 225.31 392.447 191.015 392.675 186.71C392.882 182.384 394.268 169.593 399.008 162.866C400.332 160.983 413.537 157.527 413.537 157.527Z" fill="white"/>
<path d="M407.803 154.65C418.71 154.65 426.492 144.777 426.823 144.364C427.134 143.929 427.072 143.329 426.637 142.998C426.223 142.687 425.623 142.749 425.292 143.184C425.229 143.267 417.758 152.725 407.803 152.725C407.264 152.725 406.85 153.16 406.85 153.698C406.85 154.215 407.264 154.65 407.803 154.65Z" fill="#B75742"/>
<path d="M413.62 141.01C413.62 141.01 413.661 141.341 413.765 141.88C414.262 144.487 416.124 153.118 417.387 155.498C418.898 158.354 412.171 167.523 405.693 166.406C403.768 166.074 407.328 157.982 407.142 157.133C406.831 155.498 406.376 153.263 405.921 150.966C405.672 149.682 405.403 148.358 405.176 147.137C404.472 143.639 403.913 140.783 403.913 140.783L413.62 141.01Z" fill="#F7A491"/>
<path d="M413.765 141.88C413.661 141.341 413.62 141.01 413.62 141.01L403.913 140.783C403.913 140.783 404.472 143.639 405.176 147.137C405.403 148.358 405.672 149.662 405.921 150.945C407.411 150.738 408.984 149.993 410.557 148.627C412.275 147.137 413.392 145.336 414.075 143.411C413.951 142.811 413.848 142.273 413.765 141.88Z" fill="#F47458"/>
<path d="M365.954 198.175L395.985 191.532C395.985 191.532 406.851 177.582 417.283 165.578C420.346 168.599 422.043 173.277 425.148 176.278L402.215 201.653C401.387 202.563 400.208 203.081 398.987 203.081L367.154 203.184L356.247 204.053V197.099L365.954 198.175Z" fill="#F7A491"/>
<path d="M304.234 163.984H353.783C355.087 163.984 356.267 164.791 356.764 165.991L372.017 203.184H399.317C400.083 203.184 400.704 203.805 400.704 204.571C400.704 205.337 400.083 205.957 399.317 205.957H321.599C319.467 205.957 317.522 204.695 316.653 202.749L301.295 168.537C300.343 166.405 301.896 163.984 304.234 163.984Z" fill="#F47458"/>
<path d="M330.913 185.653C331.244 187.33 332.714 188.448 334.162 188.137C335.632 187.847 336.542 186.254 336.211 184.598C335.88 182.921 334.411 181.804 332.962 182.094C331.492 182.383 330.582 183.977 330.913 185.653Z" fill="white"/>
<path d="M405.216 117.374C405.216 117.374 410.453 116.774 413.743 120.914C417.014 125.032 420.553 137.802 412.398 144.736C404.243 151.69 396.192 143.825 394.992 135.505C393.812 127.164 393.336 117.064 405.216 117.374Z" fill="#F7A491"/>
<path d="M404.637 116.008C404.637 116.008 411.632 128.136 416.641 128.695C421.629 129.275 422.291 135.711 422.291 135.711C422.291 135.711 420.511 120.851 415.544 117.995C410.597 115.118 404.637 116.008 404.637 116.008Z" fill="#184655"/>
<path d="M415.316 131.758C414.902 133.911 415.73 135.898 417.137 136.167C418.565 136.457 420.035 134.925 420.449 132.773C420.863 130.62 420.035 128.654 418.627 128.364C417.199 128.074 415.73 129.606 415.316 131.758Z" fill="#F7A491"/>
<path d="M394.701 134.988C397.972 132.649 402.09 132.835 407.865 132.38C413.018 131.966 417.034 128.758 417.034 128.758C413.743 132.276 411.466 134.884 412.459 136.954C413.432 139.023 417.137 136.167 417.137 136.167C413.867 140.017 414.715 142.542 414.715 142.542C410.079 147.82 406.085 148.544 401.863 146.661C396.005 144.032 394.701 134.988 394.701 134.988Z" fill="white"/>
<path d="M426.307 157.775C421.05 156.388 403.913 181.577 403.913 181.577C399.235 187.351 395.986 191.532 395.986 191.532C395.986 191.532 398.821 192.857 403.913 199.77L412.005 190.808L412.026 190.828C412.026 190.828 428.128 175.616 431.191 170.318C434.254 165.019 431.564 159.183 426.307 157.775Z" fill="#E4E8ED"/>
<path d="M358.399 336.391H317.212C316.55 336.391 316.012 336.929 316.012 337.591V339.847C316.012 339.972 316.115 340.054 316.219 340.054H359.393C359.496 340.054 359.6 339.972 359.6 339.847V337.591C359.6 336.929 359.062 336.391 358.399 336.391Z" fill="#346384"/>
<path d="M340.289 208.318H335.549V336.226H340.289V208.318Z" fill="#13375B"/>
<path d="M341.718 333.329H334.122C333.604 333.329 333.19 333.743 333.19 334.261V337.303C333.19 337.82 333.604 338.234 334.122 338.234H341.718C342.235 338.234 342.649 337.82 342.649 337.303V334.261C342.649 333.743 342.235 333.329 341.718 333.329Z" fill="#346384"/>
<path d="M411.467 210.698H264.146V205.937H411.467V210.698Z" fill="#13375B"/>
<path d="M87.2277 310.354C87.2277 310.354 85.7997 320.33 83.3574 323.558C82.5295 324.635 81.0186 326.001 80.0252 327.946C78.4936 330.989 79.3422 335.521 80.4805 338.005C81.06 339.288 80.4391 339.288 81.7637 339.681C85.6962 340.903 89.877 338.854 91.5534 335.066C92.4848 332.955 93.3127 330.119 93.4783 326.559C93.8922 317.515 96.6863 312.92 96.6863 312.92L87.2277 310.354Z" fill="#F7A491"/>
<path d="M130.257 314.928C130.257 314.928 131.147 326.166 130.422 329.83C130.05 331.775 127.918 335.811 128.891 337.653C129.863 339.495 130.981 339.951 130.981 339.951L156.397 340.365C157.784 340.385 156.852 339.495 155.735 338.667C153.913 337.322 152.444 336.411 146.607 333.576C146.235 333.39 144.848 332.52 144.351 332.21C143.089 331.423 141.806 330.202 140.709 328.981C138.887 326.932 138.722 317.039 138.722 317.039L130.257 314.928Z" fill="#F7A491"/>
<path d="M150.125 165.453C150.125 165.453 153.313 183.708 151.222 195.671C149.111 207.655 139.259 324.138 139.259 324.138L130.587 320.35C130.587 320.35 125.496 272.892 125.91 266.434C126.324 259.998 129.656 249.214 129.656 249.214L128.538 211.794L142.674 162.638L150.125 165.453Z" fill="#F7A491"/>
<path d="M117.197 161.603C117.197 161.603 108.38 174.953 106.269 186.005C104.179 197.057 107.822 231.021 103.786 245.488C101.592 253.332 93.3129 265.44 92.0504 275.561C90.7879 285.682 86.2138 315.755 86.2138 315.755L94.4513 319.232L123.055 248.2L143.462 188.302L148.698 157.464L117.197 161.603Z" fill="#F7A491"/>
<path d="M92.3184 333.079C86.2127 334.197 82.1561 330.596 80.045 327.926C78.4927 330.968 77.7269 335.501 78.8652 338.005C79.8794 340.199 82.8184 340.137 85.1365 340.22C87.5787 340.323 89.4622 338.957 90.6833 336.805C91.2421 335.811 91.8216 334.57 92.3184 333.079Z" fill="#F47458"/>
<path d="M144.351 332.21C137.625 333.927 132.657 332.768 129.884 331.63C129.159 333.679 128.207 336.225 128.725 337.715C129.346 339.516 130.215 339.93 130.981 339.95C137.128 340.116 153.458 340.323 158.135 340.385C158.798 340.406 159.15 339.64 158.736 339.122C157.577 337.736 144.848 332.52 144.351 332.21Z" fill="#F47458"/>
<path d="M152.361 67.5561C152.692 59.7119 151.533 51.9505 148.015 44.6444C144.993 38.3732 137.521 34.8133 130.712 34.7926C109.083 34.7719 106.331 63.3546 92.5464 74.3862C88.3449 77.7598 83.6466 80.4918 79.6521 84.1345C64.9571 97.5462 71.5802 122.383 85.0747 134.139C94.4505 142.314 109.166 146.95 120.715 140.575C126.759 137.243 131.333 131.696 134.582 125.632C139.218 117.022 142.199 107.088 145.49 97.9188C148.987 88.1497 151.926 77.9668 152.361 67.5561Z" fill="#0E2E35"/>
<path d="M141.89 92.2263C141.89 92.2263 138.579 96.9039 139.945 103.899C141.331 110.874 162.277 132.503 164.905 133.89C167.762 135.4 169.5 134.8 170.783 134.076C181.836 127.784 197.42 94.3167 199.242 91.9366C200.815 89.8462 200.815 89.8462 200.815 89.8462L199.283 84.2166L168.776 117.767C168.776 117.767 143.836 89.8875 141.89 92.2263Z" fill="#F7A491"/>
<path d="M138.205 86.4526C138.205 86.4526 140.565 87.4047 141.289 87.86C146.153 90.9025 162.069 108.247 162.069 108.247C162.069 108.247 153.687 117.25 149.982 121.12L128.788 105.163L138.205 86.4526Z" fill="#C8D2DE"/>
<path d="M115.15 162.866C101.552 179.796 101.614 191.283 101.738 213.015C101.862 234.747 104.946 241.577 93.0038 263.619C114.591 276.348 145.43 273.243 145.43 273.243C153.398 199.355 155.944 182.031 150.128 165.453C131.045 165.515 115.15 162.866 115.15 162.866Z" fill="#466EB6"/>
<path d="M123.159 83.4721C123.159 83.4721 110.72 82.6649 105.794 88.0254C100.869 93.386 116.723 135.774 117.612 142.604C118.502 149.413 110.824 163.901 110.824 163.901C110.824 163.901 133.322 173.422 151.928 168.103C151.928 168.103 151.556 118.864 150.666 114C149.755 109.116 142.304 89.3087 140.503 87.3631C138.724 85.4176 123.159 83.4721 123.159 83.4721Z" fill="white"/>
<path d="M127.32 66.8517C127.32 66.8517 127.257 67.2242 127.133 67.8452C126.574 70.8462 124.443 80.7395 122.994 83.4715C121.255 86.7623 128.975 97.2764 136.406 95.9932C138.62 95.6 134.522 86.3277 134.729 85.3549C135.102 83.4715 135.619 80.905 136.137 78.2765C136.426 76.807 136.716 75.2961 137.006 73.8887C137.792 69.8735 138.455 66.5826 138.455 66.5826L127.32 66.8517Z" fill="#F7A491"/>
<path d="M127.133 67.8452C127.257 67.2242 127.319 66.8517 127.319 66.8517L138.454 66.5826C138.454 66.5826 137.792 69.8735 137.005 73.8887C136.736 75.2961 136.426 76.7863 136.136 78.2558C134.418 78.0074 132.618 77.1795 130.817 75.6066C128.851 73.8887 127.567 71.819 126.802 69.6251C126.926 68.9214 127.05 68.3212 127.133 67.8452Z" fill="#F47458"/>
<path d="M134.813 41.6021C134.813 41.6021 129.556 41.0019 126.265 45.2448C122.974 49.4877 119.435 62.6303 127.61 69.7708C135.786 76.9113 143.858 68.8188 145.058 60.2502C146.258 51.6816 146.714 41.2916 134.813 41.6021Z" fill="#F7A491"/>
<path d="M135.391 40.1943C135.391 40.1943 128.375 52.7367 123.366 53.3163C118.337 53.8751 117.695 60.4775 117.695 60.4775C117.695 60.4775 119.475 45.1823 124.443 42.2433C129.41 39.2836 135.391 40.1943 135.391 40.1943Z" fill="#0E2E35"/>
<path d="M124.693 56.4005C125.086 58.6151 124.279 60.7469 122.871 61.0366C121.443 61.3264 119.953 59.6706 119.539 57.4561C119.125 55.2415 119.953 53.2131 121.381 52.9027C122.789 52.6129 124.279 54.1859 124.693 56.4005Z" fill="#F7A491"/>
<path d="M123.014 53.3574C128.892 57.2692 134.232 56.0687 138.702 56.7724C143.194 57.4554 145.139 58.0143 145.45 58.6352C144.58 65.8585 141.662 70.2256 137.316 72.1918C132.969 74.1373 127.774 71.1776 125.684 67.9903C126.263 66.0654 122.869 61.036 122.869 61.036C130.01 62.6297 125.167 55.5513 123.014 53.3574Z" fill="white"/>
<path d="M158.881 162.038L125.931 162.866L124.234 117.146L159.109 117.271L158.881 162.038Z" fill="#F47458"/>
<path d="M158.962 136.705C158.88 136.519 156.375 137.76 154.409 137.326C154.016 137.243 155.465 136.043 155.651 135.691C155.692 135.649 158.611 133.807 158.362 132.545C158.114 131.282 155.609 132.089 155.609 132.089C155.609 132.089 148.51 135.36 147.496 136.374C146.503 137.388 146.068 138.154 146.006 138.236C145.571 138.381 145.199 138.464 144.909 138.505C138.39 139.354 127.71 137.864 111.463 135.297L111.442 126.77C108.006 126.977 101.983 126.377 99.2099 126.067C99.3548 132.565 99.272 143.845 100.679 145.998C101.652 147.509 110.221 148.523 119.783 149.268C131.932 150.199 135.14 149.496 145.696 148.751C148.904 148.523 153.291 149.496 154.968 149.516C157.452 149.537 158.321 149.806 159.563 148.502C160.639 147.405 160.515 144.694 160.328 143.017C159.997 139.851 159.894 138.63 158.962 136.705Z" fill="#F7A491"/>
<path d="M111.856 84.6306C111.856 84.6306 104.84 85.9345 101.425 92.1851C99.1691 96.3038 96.7682 115.407 97.5133 129.626C102.274 128.612 110.263 128.426 115.147 128.405C114.961 115.676 114.257 84.2167 111.856 84.6306Z" fill="#E4E8ED"/>
<path d="M175.893 111.227C175.893 111.227 192.658 90.4681 195.949 87.2187C199.24 83.9485 212.652 74.4279 213.024 75.442C213.417 76.4355 205.759 83.9278 205.863 84.2176C205.966 84.4867 207.208 86.6392 207.643 87.7775C208.077 88.9158 208.202 91.6686 207.829 92.5171C207.457 93.3657 204.725 94.8145 203.193 95.4147C201.661 96.0149 199.447 95.6838 197.625 97.3396C195.783 98.9746 181.171 120.624 181.171 120.624L175.893 111.227Z" fill="#F7A491"/>
</svg>
