<svg width="354" height="351" viewBox="0 0 354 351" fill="none" xmlns="http://www.w3.org/2000/svg">
<path d="M23.7611 56.207C17.1975 65.6596 12.7832 75.9442 10.4259 86.5061C8.83117 93.6244 8.16094 100.881 8.39205 108.069C9.20095 134.439 22.074 160.093 45.3934 176.294C84.5441 203.473 138.301 193.766 165.48 154.639C192.682 115.488 182.976 61.7307 143.825 34.5516C130.49 25.284 115.444 20.2919 100.352 19.3212C75.4151 17.6803 50.293 26.948 32.3355 45.7376C29.2385 48.95 26.3727 52.4399 23.7611 56.207Z" fill="#D551A6"/>
<path d="M19.5547 33.4886L94.5743 105.388L101.485 1.66418C71.4398 -0.300294 41.1639 10.8394 19.5547 33.4886Z" fill="#7D0A7F"/>
<path d="M21.3808 54.5662C14.6092 64.2961 10.0563 74.9273 7.60645 85.8359L94.5747 105.388L30.2325 43.7269C27.0431 47.0319 24.0849 50.6604 21.3808 54.5662Z" fill="#B00CB3"/>
<path d="M2.29058 84.634L2.26748 84.6572C0.534124 92.4688 -0.20545 100.396 0.0487754 108.277L94.5744 105.388L2.29058 84.634Z" fill="#650667"/>
<path d="M296.684 295.849L293.771 252.677L294.28 252.654L297.192 295.826L296.684 295.849Z" fill="#81A358"/>
<path d="M289.334 294.994L282.239 177.889L282.748 177.866L289.843 294.948L289.334 294.994Z" fill="#81A358"/>
<path d="M293.032 297.491H292.523V160.879H293.032V297.491Z" fill="#81A358"/>
<path d="M297.723 296.498H297.215L299.064 214.706H299.572L297.723 296.498Z" fill="#81A358"/>
<path d="M292.477 188.821C292.477 188.821 278.287 176.71 282.493 164.623C286.723 152.536 307.523 159.076 300.913 180.87C300.913 180.87 298.764 186.509 292.477 188.821Z" fill="#71A334"/>
<path d="M296.823 182.719L296.314 182.673L297.424 169.707L298.094 167.789L296.823 182.719Z" fill="#60892C"/>
<path d="M289.842 183.043L289.334 183.02L289.75 162.52L290.189 165.802L289.842 183.043Z" fill="#60892C"/>
<path d="M287.208 179.692L284.735 165.64L285.637 167.789L287.717 179.599L287.208 179.692Z" fill="#60892C"/>
<path d="M283.51 208.697C283.51 208.697 271.215 192.773 277.617 181.495C284.019 170.239 325.249 179.553 306.598 220.183C287.971 260.813 273.572 233.472 273.572 233.472L283.51 208.697Z" fill="#86BC44"/>
<path d="M294.303 237.702L293.795 237.563L304.981 195.5L306.321 192.473L294.303 237.702Z" fill="#7BA840"/>
<path d="M290.767 233.703L290.259 233.68L292.408 186.256L293.032 183.575L290.767 233.703Z" fill="#7BA840"/>
<path d="M285.798 218.149L283.672 184.245L284.365 187.088L286.307 218.126L285.798 218.149Z" fill="#7BA840"/>
<path d="M292.778 223.002C292.778 223.002 290.929 195.685 275.259 205.761C259.567 215.815 255.707 255.289 292.778 267.284V223.002Z" fill="#70A333"/>
<path d="M295.251 249.28L279.373 210.916L278.564 207.68L295.713 249.096L295.251 249.28Z" fill="#699331"/>
<path d="M297.839 251.984C296.407 251.938 294.072 250.159 290.652 246.576C288.017 243.78 284.758 239.874 280.968 235.021C274.52 226.724 270.568 220.992 270.522 220.9L269.089 217.988C269.135 218.08 274.936 226.423 281.361 234.697C292.062 248.471 296.245 251.43 297.839 251.476V251.984Z" fill="#699331"/>
<path d="M300.197 257.138C296.938 257.138 290.259 253.509 280.321 246.345C272.972 241.029 266.478 235.644 266.408 235.598L268.442 236.592C270.915 238.602 292.64 256.629 300.197 256.629V257.138Z" fill="#699331"/>
<path d="M278.032 255.405C278.425 255.613 280.783 256.006 286.907 257.069C290.328 257.647 298.625 259.01 302.207 259.103L302.184 259.611C298.532 259.519 290.05 258.109 286.584 257.508C283.764 257.023 280.898 256.491 278.726 256.052C275.259 255.359 275.144 255.22 275.074 255.151L278.032 255.405Z" fill="#699331"/>
<path d="M297.816 282.976C297.816 282.976 284.851 269.317 287.901 248.355C290.929 227.37 314.526 227.393 314.364 247.777C314.202 268.138 309.926 273.824 297.816 282.976Z" fill="#B1D045"/>
<path d="M298.833 281.312L298.394 281.196L304.842 238.325L305.766 235.436L299.318 278.492L311.729 243.109L311.821 244.403L298.833 281.312Z" fill="#9EB24E"/>
<path d="M297.678 281.636L290.744 248.471L290.675 245.906L297.562 278.562L295.736 237.216L296.476 241.445L298.163 281.498L297.678 281.636Z" fill="#9EB24E"/>
<path d="M310.157 294.994L301.953 321.133H283.625L275.421 294.994H310.157Z" fill="url(#paint0_linear_1_2411)"/>
<path d="M310.157 294.994C310.157 294.994 292.084 297.837 292.084 321.133H283.625L275.421 294.994H310.157Z" fill="url(#paint1_linear_1_2411)"/>
<path d="M112.625 307.012H108.025V248.771H112.625V307.012Z" fill="#918783"/>
<path d="M73.4736 242.462H146.043V250.458H73.4736V242.462Z" fill="#C9BCB6"/>
<path d="M111.238 216.993C111.238 216.993 109.412 224.389 118.01 226.076C126.63 227.74 137.239 229.889 137.239 243.178H107.355L111.238 216.993Z" fill="#C9BCB6"/>
<path d="M73.474 250.459L48.0977 143.823C48.0977 143.823 93.9738 136.658 99.4281 157.25C104.905 177.843 113.896 239.018 124.804 242.809C135.736 246.599 73.474 250.459 73.474 250.459Z" fill="#C9BCB6"/>
<path d="M155.103 322.034C155.103 324.138 153.416 325.825 151.313 325.825C149.233 325.825 147.522 324.138 147.522 322.034C147.522 319.954 149.233 318.244 151.313 318.244C153.416 318.244 155.103 319.954 155.103 322.034Z" fill="#BFB2AC"/>
<path d="M69.6836 318.291L70.6312 320.972L111.238 308.399L109.297 302.922L69.6836 318.291Z" fill="#918783"/>
<path d="M151.313 318.29L150.366 320.971L109.759 308.399L111.538 302.598L151.313 318.29Z" fill="#918783"/>
<path d="M122.724 320.694V323.837L109.759 308.399L111.538 302.598L122.724 320.694Z" fill="#918783"/>
<path d="M123.048 322.034C123.048 324.138 121.338 325.825 119.235 325.825C117.155 325.825 115.444 324.138 115.444 322.034C115.444 319.954 117.155 318.244 119.235 318.244C121.338 318.244 123.048 319.954 123.048 322.034Z" fill="#BFB2AC"/>
<path d="M73.4741 322.034C73.4741 324.138 71.787 325.825 69.6838 325.825C67.5807 325.825 65.8936 324.138 65.8936 322.034C65.8936 319.954 67.5807 318.244 69.6838 318.244C71.787 318.244 73.4741 319.954 73.4741 322.034Z" fill="#BFB2AC"/>
<path d="M177.706 201.924V204.328H291.969V201.924C291.969 199.683 290.467 197.88 288.618 197.88H181.08C179.231 197.88 177.706 199.683 177.706 201.924Z" fill="#D6985E"/>
<path d="M250.97 321.18H285.475V315.656H254.344C252.472 315.656 250.97 317.182 250.97 319.054V321.18Z" fill="#807066"/>
<path d="M278.727 321.179H283.303V204.328H278.727V321.179Z" fill="#807066"/>
<path d="M269.574 321.179H274.127V204.328H269.574V321.179Z" fill="#807066"/>
<path d="M237.195 130.672V190.184H239.876V130.672H237.195Z" fill="#6E6760"/>
<path d="M243.782 197.88H263.866V196.655H243.782C242.719 196.655 241.979 196.424 241.54 195.916C241.008 195.338 241.078 194.529 241.078 194.529L241.101 194.483V194.46V168.505H239.876V194.436C239.853 194.668 239.807 195.8 240.615 196.725C241.286 197.487 242.349 197.88 243.782 197.88Z" fill="#918880"/>
<path d="M216.95 195.754H237.611V197.88H214.985V197.718C214.985 196.632 215.864 195.754 216.95 195.754Z" fill="#6E6760"/>
<path d="M226.194 204.328H291.969V201.924C291.969 199.683 290.421 197.88 288.503 197.88H236.479L226.194 204.328Z" fill="#BC8551"/>
<path d="M276.277 197.88H248.451C247.318 197.88 246.417 196.979 246.417 195.846V192.564C246.417 191.432 247.318 190.531 248.451 190.531H276.277V197.88Z" fill="url(#paint2_linear_1_2411)"/>
<path d="M281.061 191.27V197.117H281.546V197.88H261.37C260.237 197.88 259.336 196.978 259.336 195.846V192.564C259.336 191.432 260.237 190.53 261.37 190.53H281.546V191.27H281.061Z" fill="#FF9F55"/>
<path d="M281.061 197.117H262.85C261.74 197.117 260.839 196.216 260.839 195.083V193.304C260.839 192.194 261.74 191.27 262.85 191.27H281.061V197.117Z" fill="#EFF7FE"/>
<path d="M277.571 190.53H247.11C245.701 190.53 244.545 189.375 244.545 187.965V184.521C244.545 183.112 245.701 181.956 247.11 181.956H277.571V190.53Z" fill="url(#paint3_linear_1_2411)"/>
<path d="M282.979 182.857V189.652H283.395V190.53H266.824C265.415 190.53 264.282 189.375 264.282 187.965V184.521C264.282 183.112 265.415 181.956 266.824 181.956H283.395V182.857H282.979Z" fill="#5284FC"/>
<path d="M282.98 189.652H268.119C266.709 189.652 265.554 188.497 265.554 187.087V185.4C265.554 183.99 266.709 182.857 268.119 182.857H282.98V189.652Z" fill="#EFF7FE"/>
<path d="M255.615 181.956H278.773C280.298 181.956 281.546 180.731 281.546 179.206V174.237C281.546 172.712 280.298 171.464 278.773 171.464H255.615V181.956Z" fill="url(#paint4_linear_1_2411)"/>
<path d="M251.478 172.55V180.893H251.062V181.956H267.564C269.089 181.956 270.314 180.731 270.314 179.206V174.237C270.314 172.712 269.089 171.464 267.564 171.464H251.062V172.55H251.478Z" fill="#FF9F55"/>
<path d="M251.479 180.893H266.085C267.587 180.893 268.812 179.645 268.812 178.143V175.3C268.812 173.775 267.587 172.55 266.085 172.55H251.479V180.893Z" fill="#EFF7FE"/>
<path d="M272.972 171.463H248.405C246.81 171.463 245.516 170.169 245.516 168.574V163.883C245.516 162.288 246.81 160.971 248.405 160.971H272.972V171.463Z" fill="url(#paint5_linear_1_2411)"/>
<path d="M277.363 162.057V170.4H277.802V171.463H260.307C258.689 171.463 257.395 170.169 257.395 168.574V163.883C257.395 162.288 258.689 160.971 260.307 160.971H277.802V162.057H277.363Z" fill="#5284FC"/>
<path d="M277.363 170.401H261.809C260.214 170.401 258.92 169.107 258.92 167.489V164.947C258.92 163.352 260.214 162.058 261.809 162.058H277.363V170.401Z" fill="#EFF7FE"/>
<path d="M279.882 160.971H254.228C253.235 160.971 252.426 160.162 252.426 159.168V154.847C252.426 153.853 253.235 153.044 254.228 153.044H279.882V160.971Z" fill="url(#paint6_linear_1_2411)"/>
<path d="M284.296 153.853V160.162H284.735V160.971H266.131C265.114 160.971 264.328 160.162 264.328 159.168V154.847C264.328 153.853 265.114 153.044 266.131 153.044H284.735V153.853H284.296Z" fill="#5284FC"/>
<path d="M284.297 160.162H267.495C266.501 160.162 265.692 159.353 265.692 158.359V155.655C265.692 154.661 266.501 153.853 267.495 153.853H284.297V160.162Z" fill="#EFF7FE"/>
<path d="M235.439 5.06188H199.801V0.000488281H235.439V5.06188Z" fill="#E0E0E0"/>
<path d="M264.651 5.06164H241.008V0.000244141H264.651V5.06164Z" fill="#7D0A7F"/>
<path d="M326.451 5.06188H269.343V0.000488281H326.451V5.06188Z" fill="#E0E0E0"/>
<path d="M173.846 81.63H137.146V76.5686H173.846V81.63Z" fill="#E0E0E0"/>
<path d="M230.631 24.1061H195.571V19.0447H230.631V24.1061Z" fill="#7D0A7F"/>
<path d="M193.029 43.1264H178.053V38.0881H193.029V43.1264Z" fill="#E0E0E0"/>
<path d="M196.703 62.4474H163.076V57.386H196.703V62.4474Z" fill="#E0E0E0"/>
<path d="M248.242 62.4473H201.788V57.3859H248.242V62.4473Z" fill="#7D0A7F"/>
<path d="M172.206 43.2651H137.146V38.2268H172.206V43.2651Z" fill="#E0E0E0"/>
<path d="M157.946 62.4474H137.146V57.386H157.946V62.4474Z" fill="#E0E0E0"/>
<path d="M219.723 43.2648H200.078V38.2266H219.723V43.2648Z" fill="#E0E0E0"/>
<path d="M172.067 5.06188H137.007V0.000488281H172.067V5.06188Z" fill="#E0E0E0"/>
<path d="M203.059 100.813H167.999V95.7512H203.059V100.813Z" fill="#E0E0E0"/>
<path d="M159.887 100.813H137.146V95.7512H159.887V100.813Z" fill="#E0E0E0"/>
<path d="M186.975 24.1061H137.008V19.0447H186.975V24.1061Z" fill="#E0E0E0"/>
<path d="M345.818 24.1061H301.167V19.0447H345.818V24.1061Z" fill="#7D0A7F"/>
<path d="M292.986 24.1061H266.801V19.0447H292.986V24.1061Z" fill="#E0E0E0"/>
<path d="M272.486 101.09H246.301V96.0283H272.486V101.09Z" fill="#E0E0E0"/>
<path d="M256.423 24.1061H240.061V19.0447H256.423V24.1061Z" fill="#E0E0E0"/>
<path d="M199.431 81.7689H179.255V76.7075H199.431V81.7689Z" fill="#7D0A7F"/>
<path d="M354 5.06164H331.675V0.000244141H354V5.06164Z" fill="#E0E0E0"/>
<path d="M239.436 101.089H211.68V96.0281H239.436V101.089Z" fill="#7D0A7F"/>
<path d="M194.139 5.06188H177.799V0.000488281H194.139V5.06188Z" fill="#E0E0E0"/>
<path d="M160.188 90.3199C160.188 90.3199 157.068 83.502 150.782 86.4834C144.495 89.4647 145.535 98.5244 147.87 102.338C150.204 106.151 158.547 111.79 155.843 118.678C153.116 125.565 149.672 130.88 149.672 130.88C149.672 130.88 166.544 130.118 168.439 121.15C170.311 112.183 160.188 90.3199 160.188 90.3199Z" fill="#223247"/>
<path d="M193.884 171.14C193.353 168.644 192.96 168.714 192.683 165.108C192.405 161.503 192.035 144.262 191.966 142.136C191.874 140.009 191.458 130.025 189.17 125.842C186.835 121.566 179.255 118.978 179.255 118.978C179.255 118.978 183.184 139.917 183.138 144.262C183.114 145.579 183.531 147.96 184.131 150.71C184.147 150.725 184.155 150.741 184.155 150.756C184.27 151.38 184.293 151.889 184.224 152.351C184.039 153.922 183.138 154.962 183.692 157.019L183.669 158.106C183.731 158.321 183.792 158.529 183.854 158.73C184.617 161.688 185.333 164.854 185.657 166.264C185.726 166.564 185.772 166.772 185.819 166.911C186.327 168.829 185.703 167.812 186.604 172.596C186.604 172.596 194.855 175.948 193.884 171.14Z" fill="#F08D29"/>
<path d="M150.967 184.8C150.967 184.8 144.496 193.212 142.74 203.219C140.96 213.227 143.78 246.807 143.687 251.753C143.618 256.699 139.019 269.017 139.943 278.331C140.844 287.645 148.541 334.538 148.541 334.538L154.573 333.429C154.573 333.429 153.856 284.779 154.434 280.851C155.012 276.945 156.144 262.685 156.375 261.09C156.606 259.472 170.982 217.202 170.982 209.991C170.982 202.78 166.614 173.013 150.967 184.8Z" fill="#8E4F3A"/>
<path d="M183.554 188.081C183.554 188.081 194.209 228.758 195.48 234.397C196.751 240.036 198.577 244.681 198.577 247.062C198.577 252.632 200.726 263.309 200.726 263.309L212.351 328.876H205.695C205.695 328.876 189.217 286.028 187.368 276.298C185.958 268.833 185.681 259.426 184.525 256.214C183.369 253.001 163.863 217.826 163.863 217.826C163.863 217.826 150.713 176.272 183.554 188.081Z" fill="#8E4F3A"/>
<path d="M198.577 247.062C198.577 247.062 173.94 257.647 137.239 257.647C137.239 257.647 138.834 209.829 144.173 197.857C149.511 185.886 184.41 191.271 184.41 191.271C184.41 191.271 198.577 237.031 198.577 247.062Z" fill="#292C47"/>
<path d="M171.49 115.881C171.49 115.881 177.175 118.562 179.163 118.955C181.127 119.371 188.8 129.309 190.141 132.96C191.481 136.589 190.141 142.043 187.39 148.445C184.617 154.847 187.229 156.996 185.958 163.398C184.686 169.8 184.686 187.249 184.941 190.808C185.172 194.367 150.25 203.242 142.901 196.771C142.901 196.771 147.801 179.622 151.822 170.932C152.585 169.268 153.001 161.803 152.122 159.585C151.244 157.389 141.445 140.865 141.445 140.865C141.445 140.865 139.434 124.386 143.71 121.058C147.431 118.169 158.848 116.875 160.674 116.228C162.5 115.604 167.769 115.326 171.49 115.881Z" fill="#EDDAD3"/>
<path d="M187.39 148.445C184.617 154.847 187.229 156.996 185.958 163.398C184.686 169.8 184.686 187.249 184.941 190.808C185.172 194.367 150.25 203.242 142.901 196.771C142.901 196.771 144.819 190.069 147.223 182.927C147.531 182.049 147.839 181.163 148.147 180.269C149.349 176.849 150.62 173.521 151.822 170.932C152.585 169.268 153.001 161.803 152.122 159.585C151.799 158.73 150.112 155.748 148.194 152.42C147.408 151.01 146.553 149.554 145.744 148.168C143.456 144.262 141.445 140.865 141.445 140.865C141.445 140.865 139.434 124.386 143.71 121.058C145.166 119.926 147.824 119.024 150.62 118.331C151.66 118.077 152.723 117.846 153.763 117.614C156.976 116.967 159.842 116.528 160.674 116.228C162.476 115.604 167.769 115.326 171.49 115.881C171.49 115.881 177.175 118.562 179.163 118.955C181.127 119.348 188.8 129.332 190.141 132.96C191.504 136.589 190.141 142.043 187.39 148.445Z" fill="#F08D29"/>
<path d="M174.217 109.318C174.217 109.318 174.055 110.635 173.894 112.461C173.824 113.316 173.732 114.264 173.639 115.257C173.408 118.216 173.2 121.521 173.316 123.161C173.316 123.161 167.399 129.078 160.674 116.228C160.674 116.228 163.493 110.936 161.367 103.725C159.241 96.514 174.217 109.318 174.217 109.318Z" fill="#8E4F3A"/>
<path d="M156.121 117.152C156.121 117.152 163.286 128.778 171.375 128.292C182.561 127.599 176.667 118.123 176.667 118.123C176.667 118.123 173.871 116.528 173.085 116.39C172.299 116.228 160.743 116.089 160.743 116.089L156.121 117.152Z" fill="#8E4F3A"/>
<path d="M151.729 119.325C151.729 119.325 144.288 118.054 140.197 124.687C135.551 132.267 135.621 135.757 134.904 139.594C134.234 143.222 131.992 149.046 131.715 150.063C131.438 151.08 126.03 161.434 128.271 165.825C130.513 170.216 151.822 173.452 152.053 174.399C152.215 174.977 154.572 166.911 154.572 166.911C154.572 166.911 151.452 166.241 148.425 165.247C144.75 164.022 141.075 161.711 141.56 159.816C142.693 155.679 146.437 146.18 147.477 144.216C148.517 142.228 157.669 122.168 151.729 119.325Z" fill="#F08D29"/>
<path d="M206.688 328.182C206.688 328.182 208.999 326.125 210.178 325.871C211.334 325.64 212.42 325.686 212.905 326.241C213.414 326.796 214.824 328.991 215.563 329.662C216.326 330.332 221.757 335.578 223.051 335.948C224.322 336.318 229.892 336.017 229.592 339.253C229.268 342.488 224.761 343.898 216.696 343.159C208.653 342.419 209.623 340.524 205.094 339.553C200.587 338.583 200.286 336.318 201.072 333.567C201.858 330.817 205.07 328.09 204.747 327.35C204.4 326.634 206.688 328.182 206.688 328.182Z" fill="#51578C"/>
<path d="M149.766 334.053C149.766 334.053 152.331 332.874 154.041 332.944C155.751 333.013 155.567 334.053 156.006 334.7C156.445 335.324 160.466 341.449 161.575 342.558C162.685 343.644 166.591 344.823 166.036 347.573C165.504 350.324 160.535 351.433 154.411 350.624C148.286 349.838 145.282 344.153 144.311 342.859C143.341 341.564 146.646 333.314 147.616 332.736C148.61 332.158 149.766 334.053 149.766 334.053Z" fill="#51578C"/>
<path d="M190.187 140.218C190.187 140.218 188.569 146.042 187.229 148.954C185.888 151.843 186.119 155.402 186.212 157.574C186.327 159.747 186.281 162.289 185.588 165.918C185.588 165.918 185.68 168.991 186.281 168.968C186.281 168.968 189.124 161.226 190.187 140.218Z" fill="#C9B9B3"/>
<path d="M155.381 86.8995C155.381 86.8995 151.892 88.656 152.076 93.7867C152.284 98.9175 157.3 102.87 159.472 101.83C161.668 100.789 155.381 86.8995 155.381 86.8995Z" fill="#51578C"/>
<path d="M177.591 79.1109C177.591 79.1109 184.409 83.5945 183.808 93.0702C183.23 102.546 180.041 112.022 178.1 112.854C176.158 113.709 167.861 110.612 166.22 109.757C164.372 108.763 161.136 105.181 160.489 104.071C159.842 102.985 152.978 87.9395 159.611 82.231C166.22 76.5224 169.664 76.2682 177.591 79.1109Z" fill="#8E4F3A"/>
<path d="M172.137 90.4128C172.137 90.4128 177.984 92.5621 183.854 92.0306C183.854 92.0306 185.773 75.2748 168.994 75.2748C152.215 75.2748 154.665 92.0305 155.011 94.2955C155.335 96.5835 158.409 104.742 161.991 106.614C161.991 106.614 160.72 97.9933 163.124 96.4448C165.504 94.8964 170.912 93.0012 172.137 90.4128Z" fill="#223247"/>
<path d="M166.544 94.6189C166.22 92.7238 164.417 90.9211 162.337 92.8624C160.257 94.8269 163.77 99.6803 165.249 99.4261C166.752 99.1718 167.006 97.1611 166.544 94.6189Z" fill="#8E4F3A"/>
<path d="M183.116 154.985H151.638C150.899 154.985 150.298 154.408 150.298 153.668V148.861C150.298 148.121 150.899 147.521 151.638 147.521H183.116V154.985Z" fill="#C44747"/>
<path d="M178.84 162.474H147.385C146.646 162.474 146.045 161.873 146.045 161.133V156.326C146.045 155.587 146.646 154.986 147.385 154.986H178.84V162.474Z" fill="#E68E35"/>
<path d="M183.116 169.939H151.638C150.899 169.939 150.298 169.338 150.298 168.598V163.791C150.298 163.051 150.899 162.474 151.638 162.474H183.116V169.939Z" fill="#58A668"/>
<path d="M197.306 154.986H165.828C165.089 154.986 164.511 154.408 164.511 153.668V148.861C164.511 148.122 165.089 147.521 165.828 147.521H197.306V154.986Z" fill="#E55353"/>
<path d="M197.306 154.177H166.729C165.99 154.177 165.412 153.576 165.412 152.86V149.67C165.412 148.931 165.99 148.353 166.729 148.353H197.306V154.177Z" fill="#FAE6DE"/>
<path d="M195.411 147.521H152.978C152.146 147.521 151.453 146.85 151.453 145.995V141.604C151.453 140.749 152.146 140.056 152.978 140.056H195.411V147.521Z" fill="#5084C7"/>
<path d="M195.411 147.521H177.8C177.246 147.521 176.807 147.082 176.807 146.527V141.049C176.807 140.518 177.246 140.056 177.8 140.056H195.411V147.521Z" fill="#5E9BEB"/>
<path d="M195.411 146.712H178.308C177.754 146.712 177.314 146.273 177.314 145.718V141.881C177.314 141.327 177.754 140.888 178.308 140.888H195.411V146.712Z" fill="#FAE6DE"/>
<path d="M193.054 162.474H161.576C160.836 162.474 160.235 161.873 160.235 161.133V156.326C160.235 155.587 160.836 154.986 161.576 154.986H193.054V162.474Z" fill="#FAA146"/>
<path d="M197.306 169.939H165.828C165.089 169.939 164.511 169.338 164.511 168.598V163.791C164.511 163.051 165.089 162.474 165.828 162.474H197.306V169.939Z" fill="#6DBD7D"/>
<path d="M193.054 161.688H162.477C161.738 161.688 161.137 161.11 161.137 160.371V157.089C161.137 156.349 161.738 155.771 162.477 155.771H193.054V161.688Z" fill="#FAE6DE"/>
<path d="M197.306 169.06H166.729C165.99 169.06 165.412 168.459 165.412 167.72V164.669C165.412 163.93 165.99 163.352 166.729 163.352H197.306V169.06Z" fill="#FAE6DE"/>
<path d="M151.891 167.674C151.891 167.674 149.071 169.176 149.88 170.239C150.666 171.302 151.868 172.596 151.868 172.596L151.891 167.674Z" fill="#8E4F3A"/>
<path d="M174.98 170.054L161.644 168.644C162.846 168.089 164.834 167.049 164.487 166.472C163.955 165.64 160.003 166.98 158.455 167.003C157.045 167.003 155.173 167.812 154.873 167.928L151.591 167.581L151.868 172.596C151.868 172.596 158.848 174.098 160.882 174.445C164.187 175 174.748 171.995 174.98 171.417C175.396 170.377 174.98 170.054 174.98 170.054Z" fill="#8E4F3A"/>
<path d="M154.572 166.911C154.572 166.911 153.417 173.036 151.452 175.624C151.452 175.624 138.672 171.002 135.482 169.823L143.456 162.821C143.456 162.821 147.87 165.432 154.572 166.911Z" fill="#F08D29"/>
<path d="M195.71 167.304C195.71 167.304 195.941 172.065 193.076 173.105C190.21 174.168 186.928 173.683 185.495 173.059C184.062 172.458 180.434 170.632 181.566 169.222C185.218 164.693 195.71 167.304 195.71 167.304Z" fill="#8E4F3A"/>
<path d="M194.81 170.609C194.81 170.609 198.507 170.54 198.161 169.199C197.837 167.882 195.249 168.598 195.249 168.598L194.81 170.609Z" fill="#8E4F3A"/>
<path d="M173.894 112.461C173.824 113.316 173.732 114.263 173.639 115.257C167.954 113.177 165.597 109.364 165.597 109.364C167.053 110.542 173.894 112.461 173.894 112.461Z" fill="#613628"/>
<defs>
<linearGradient id="paint0_linear_1_2411" x1="275.421" y1="294.994" x2="310.157" y2="294.994" gradientUnits="userSpaceOnUse">
<stop stop-color="#BAD0DE"/>
<stop offset="1" stop-color="#F5F2FF"/>
</linearGradient>
<linearGradient id="paint1_linear_1_2411" x1="275.421" y1="294.994" x2="310.157" y2="294.994" gradientUnits="userSpaceOnUse">
<stop stop-color="#9FA0AD"/>
<stop offset="0.995" stop-color="#55B5FF"/>
</linearGradient>
<linearGradient id="paint2_linear_1_2411" x1="260.446" y1="197.233" x2="260.446" y2="189.329" gradientUnits="userSpaceOnUse">
<stop stop-color="#FF9F55"/>
<stop offset="1" stop-color="#FFD255"/>
</linearGradient>
<linearGradient id="paint3_linear_1_2411" x1="262.179" y1="179.437" x2="262.179" y2="190.369" gradientUnits="userSpaceOnUse">
<stop stop-color="#40D5E6"/>
<stop offset="1" stop-color="#5577FF"/>
</linearGradient>
<linearGradient id="paint4_linear_1_2411" x1="266.454" y1="179.969" x2="266.454" y2="171.787" gradientUnits="userSpaceOnUse">
<stop stop-color="#FF9F55"/>
<stop offset="1" stop-color="#FFD255"/>
</linearGradient>
<linearGradient id="paint5_linear_1_2411" x1="261.231" y1="157.989" x2="261.231" y2="167.165" gradientUnits="userSpaceOnUse">
<stop stop-color="#40D5E6"/>
<stop offset="1" stop-color="#5577FF"/>
</linearGradient>
<linearGradient id="paint6_linear_1_2411" x1="267.31" y1="153.483" x2="267.31" y2="160.809" gradientUnits="userSpaceOnUse">
<stop stop-color="#40D5E6"/>
<stop offset="1" stop-color="#5577FF"/>
</linearGradient>
</defs>
</svg>
