<svg width="16" height="16" viewBox="0 0 16 16" fill="none" xmlns="http://www.w3.org/2000/svg">
<path d="M8.41665 1.74967C8.41665 2.20801 8.25331 2.60051 7.92665 2.92717C7.59998 3.25384 7.20776 3.4169 6.74998 3.41634C6.56942 3.41634 6.40276 3.3919 6.24998 3.34301C6.0972 3.29412 5.94442 3.2144 5.79165 3.10384C5.45831 3.21495 5.19081 3.41634 4.98915 3.70801C4.78748 3.99967 4.68692 4.31912 4.68748 4.66634H14.5416C14.7916 4.66634 14.9966 4.76356 15.1566 4.95801C15.3166 5.15245 15.3825 5.37467 15.3541 5.62467L14.7708 9.79134C14.743 9.99967 14.6494 10.17 14.49 10.3022C14.3305 10.4344 14.1464 10.5002 13.9375 10.4997H10.5833V8.83301H13.2291C13.2986 8.41634 13.3578 7.99967 13.4066 7.58301C13.4555 7.16634 13.5144 6.74967 13.5833 6.33301H2.41665C2.48609 6.74967 2.54526 7.16634 2.59415 7.58301C2.64303 7.99967 2.70192 8.41634 2.77081 8.83301H5.41665V10.4997H2.06248C1.85415 10.4997 1.66998 10.4336 1.50998 10.3013C1.34998 10.1691 1.25637 9.99912 1.22915 9.79134L0.645812 5.62467C0.618034 5.37467 0.684146 5.15245 0.844146 4.95801C1.00415 4.76356 1.20887 4.66634 1.45831 4.66634H2.99998C2.99998 3.98579 3.18748 3.36773 3.56248 2.81217C3.93748 2.25662 4.44442 1.8469 5.08331 1.58301C5.12498 1.15245 5.30553 0.794952 5.62498 0.510508C5.94442 0.226063 6.31942 0.0835634 6.74998 0.0830078C7.20831 0.0830078 7.60081 0.246341 7.92748 0.573008C8.25415 0.899675 8.4172 1.2919 8.41665 1.74967ZM6.14581 13.833H9.85415L10.3333 8.83301H5.66665L6.14581 13.833ZM10.5833 15.4997H5.41665C5.19442 15.4997 5.01026 15.4302 4.86415 15.2913C4.71803 15.1525 4.63137 14.9719 4.60415 14.7497L4.04165 8.99967C3.98609 8.51356 4.12498 8.08662 4.45831 7.71884C4.79165 7.35106 5.20137 7.1669 5.68748 7.16634H10.3125C10.7986 7.16634 11.2083 7.35051 11.5416 7.71884C11.875 8.08718 12.0139 8.51412 11.9583 8.99967L11.3958 14.7497C11.368 14.9719 11.2814 15.1525 11.1358 15.2913C10.9903 15.4302 10.8061 15.4997 10.5833 15.4997Z" fill="white" fill-opacity="0.8"/>
</svg>
