<svg width="14" height="18" viewBox="0 0 14 18" fill="none" xmlns="http://www.w3.org/2000/svg">
<path d="M6.99967 9.00033C7.45801 9.00033 7.85051 8.83699 8.17717 8.51032C8.50384 8.18366 8.6669 7.79144 8.66634 7.33366C8.66634 6.87533 8.50301 6.48283 8.17634 6.15616C7.84967 5.82949 7.45745 5.66644 6.99967 5.66699C6.54134 5.66699 6.14884 5.83033 5.82217 6.15699C5.49551 6.48366 5.33245 6.87588 5.33301 7.33366C5.33301 7.79199 5.49634 8.18449 5.82301 8.51116C6.14967 8.83783 6.5419 9.00088 6.99967 9.00033ZM6.99967 15.1253C8.69412 13.5698 9.95106 12.1564 10.7705 10.8853C11.59 9.61421 11.9997 8.48588 11.9997 7.50033C11.9997 5.98644 11.5169 4.74699 10.5513 3.78199C9.58578 2.81699 8.4019 2.33421 6.99967 2.33366C5.5969 2.33366 4.41273 2.81644 3.44717 3.78199C2.48162 4.74755 1.99912 5.98699 1.99967 7.50033C1.99967 8.48644 2.4094 9.61505 3.22884 10.8862C4.04829 12.1573 5.30523 13.5703 6.99967 15.1253ZM6.99967 17.3337C4.76356 15.4309 3.09356 13.6637 1.98967 12.032C0.885786 10.4003 0.333563 8.88977 0.333008 7.50033C0.333008 5.41699 1.00329 3.75727 2.34384 2.52116C3.6844 1.28505 5.23634 0.666992 6.99967 0.666992C8.76356 0.666992 10.3158 1.28505 11.6563 2.52116C12.9969 3.75727 13.6669 5.41699 13.6663 7.50033C13.6663 8.88921 13.1141 10.3998 12.0097 12.032C10.9052 13.6642 9.23523 15.4314 6.99967 17.3337Z" fill="white" fill-opacity="0.8"/>
</svg>
